<mxfile host="app.diagrams.net" agent="Mozilla/5.0 (Macintosh; Intel Mac OS X 10_15_7) AppleWebKit/537.36 (KHTML, like Gecko) Chrome/141.0.0.0 Safari/537.36" version="28.2.8">
  <diagram name="Page-1" id="3cqcM4N8O2vbSYXzbNZz">
    <mxGraphModel dx="1769" dy="1046" grid="1" gridSize="10" guides="1" tooltips="1" connect="1" arrows="1" fold="1" page="1" pageScale="1" pageWidth="827" pageHeight="1169" math="0" shadow="0">
      <root>
        <mxCell id="0" />
        <mxCell id="1" parent="0" />
        <mxCell id="WQfHvuFEGdMXnjnuVvza-8" value="" style="group" vertex="1" connectable="0" parent="1">
          <mxGeometry x="60" y="150" width="600" height="330" as="geometry" />
        </mxCell>
        <mxCell id="DQLFJEPSvfaTY-vOjtD--3" value="" style="group" parent="WQfHvuFEGdMXnjnuVvza-8" vertex="1" connectable="0">
          <mxGeometry width="600" height="330" as="geometry" />
        </mxCell>
        <mxCell id="DQLFJEPSvfaTY-vOjtD--4" value="" style="rounded=0;whiteSpace=wrap;html=1;fillColor=none;" parent="DQLFJEPSvfaTY-vOjtD--3" vertex="1">
          <mxGeometry width="600" height="330" as="geometry" />
        </mxCell>
        <mxCell id="DQLFJEPSvfaTY-vOjtD--5" value="" style="image;sketch=0;aspect=fixed;html=1;points=[];align=center;fontSize=12;image=img/lib/mscae/Docker.svg;" parent="DQLFJEPSvfaTY-vOjtD--3" vertex="1">
          <mxGeometry x="20" y="20" width="60.98" height="50" as="geometry" />
        </mxCell>
        <mxCell id="WQfHvuFEGdMXnjnuVvza-36" value="" style="group" vertex="1" connectable="0" parent="DQLFJEPSvfaTY-vOjtD--3">
          <mxGeometry x="20" y="80" width="554" height="230" as="geometry" />
        </mxCell>
        <mxCell id="WQfHvuFEGdMXnjnuVvza-37" value="" style="rounded=0;whiteSpace=wrap;html=1;fillColor=none;" vertex="1" parent="WQfHvuFEGdMXnjnuVvza-36">
          <mxGeometry width="554" height="230" as="geometry" />
        </mxCell>
        <mxCell id="WQfHvuFEGdMXnjnuVvza-58" value="" style="group" vertex="1" connectable="0" parent="WQfHvuFEGdMXnjnuVvza-36">
          <mxGeometry x="180.00485232067507" y="110" width="77.15541666666667" height="99" as="geometry" />
        </mxCell>
        <mxCell id="WQfHvuFEGdMXnjnuVvza-7" value="" style="shape=image;verticalLabelPosition=bottom;verticalAlign=top;imageAspect=0;aspect=fixed;image=data:image/svg+xml,PHN2ZyB4bWxuczp4bGluaz0iaHR0cDovL3d3dy53My5vcmcvMTk5OS94bGluayIgeG1sbnM9Imh0dHA6Ly93d3cudzMub3JnLzIwMDAvc3ZnIiB4bWw6c3BhY2U9InByZXNlcnZlIiBzdHlsZT0iZW5hYmxlLWJhY2tncm91bmQ6bmV3IDAgMCAxMjIuODggMTEwLjMzIiB2aWV3Qm94PSItMC4wMDcxOTg5ODkzOTEzMjY5MDQgMC4wMTY2MDAxMTg5NTAwMDkzNDYgMTIyLjg4OTU3MjE0MzU1NDY5IDExMC4zMDQ4OTM0OTM2NTIzNCIgeT0iMHB4IiB4PSIwcHgiIGlkPSJMYXllcl8xIiB2ZXJzaW9uPSIxLjEiIHdpZHRoPSIxMjIuODg5NTcyMTQzNTU0NjkiIGhlaWdodD0iMTEwLjMwNDg5MzQ5MzY1MjM0Ij48Zz48cGF0aCBkPSJNMTMuOSw2Ny43NGMxLjE1LDAuNTQsMi4zNCwwLjk2LDMuNTksMS4yOGMxLjI0LDAuMzIsMi41NCwwLjU1LDMuODcsMC42N2MxLjE4LDAuMTEsMi40LDAuMTUsMy42NSwwLjEyIGMxLjA4LTAuMDMsMi4yLTAuMTEsMy4zNS0wLjI0Yy0wLjI2LTEuOTYtMC4zOS0zLjctMC4zNC01LjI2YzAuMDUtMS43MywwLjMzLTMuMjIsMC44OS00LjUzYzAuNTItMS4yMSwxLjI2LTIuMjMsMi4yNy0zLjA4IGMwLjgyLTAuNywxLjgyLTEuMjgsMy4wMy0xLjc2Yy0wLjc5LTAuNzUtMS41MS0xLjQzLTIuMTQtMi4wN2MtMC44LTAuODEtMS40Ni0xLjU1LTEuOTctMi4yN2MtMS4yOC0xLjc5LTEuNy0zLjM0LTEuMDgtNC45OSBjMC41OS0xLjU2LDIuMTctMy4xNSw0LjkxLTUuMWMxLjQxLTEsMi0xLjg4LDIuMTctMi43NWMwLjE4LTAuODgtMC4wNy0xLjgzLTAuMzQtMi44OGMtMC4xNS0wLjYtMC4zMS0xLjIyLTAuNDMtMS44MyBjLTAuMTItMC41OS0wLjIxLTEuMi0wLjI1LTEuODZjLTEuMDMtMC45Ni0yLjUyLTIuMjYtNC4zMi0zLjA5Yy0xLjg1LTAuODUtNC4wNS0xLjIyLTYuNDMtMC4yMWMtMC40NCwwLjE4LTAuOTEsMC4xNy0xLjMxLDAuMDEgYy0wLjQxLTAuMTctMC43NS0wLjQ5LTAuOTMtMC45MmwwLDBjLTAuMTgtMC40NC0wLjE3LTAuOS0wLjAxLTEuMzFjMC4xNy0wLjQxLDAuNDktMC43NSwwLjkyLTAuOTNsMC4wMSwwIGMyLjg2LTEuMjEsNS40Ni0xLjA5LDcuNjktMC4zOGMxLjkxLDAuNjEsMy41NSwxLjY2LDQuODcsMi43YzAuMjQtMC44LDAuNTgtMS42NSwxLjA1LTIuNTVjMC42MS0xLjE4LDEuNDQtMi40NSwyLjU1LTMuODMgYzAuNDktMC42LDAuOTctMS4yMywxLjQzLTEuOWMwLjQ2LTAuNjcsMC44OS0xLjQxLDEuMjgtMi4yM2MwLjM5LTAuODMsMC43NC0xLjc3LDEuMDItMi44NmMwLjI4LTEuMSwwLjUtMi4zNCwwLjYzLTMuNzhoMCBjMC4wNC0wLjQ3LDAuMjctMC44OCwwLjYxLTEuMTdjMC4zNC0wLjI4LDAuNzgtMC40NCwxLjI1LTAuNGMwLjQ3LDAuMDQsMC44OCwwLjI3LDEuMTcsMC42MWwwLjAzLDAuMDQgYzAuMjYsMC4zMywwLjQxLDAuNzYsMC4zNywxLjIybC0wLjAxLDAuMDVjLTAuMTUsMS42NC0wLjQsMy4wNy0wLjczLDQuMzRjLTAuMzQsMS4yOS0wLjc1LDIuNDEtMS4yMiwzLjQxIGMtMC40NywxLjAxLTAuOTksMS44OC0xLjUyLDIuNjdjLTAuNTMsMC43OC0xLjA4LDEuNDgtMS42MiwyLjE2Yy0xLjIzLDEuNTMtMi4wNCwyLjg5LTIuNTUsNC4xYy0wLjQ5LDEuMTctMC43LDIuMjEtMC43NSwzLjE1IGMwLjA0LDAuMTQsMC4wNiwwLjI5LDAuMDUsMC40NGMwLDAuMTUtMC4wMiwwLjMtMC4wNiwwLjQ0YzAuMDMsMC41NCwwLjEsMS4wNSwwLjIsMS41NWMwLjExLDAuNTUsMC4yMywxLjA0LDAuMzYsMS41MSBjMC40MiwxLjYyLDAuNzksMy4wOCwwLjQ4LDQuNTljLTAuMzIsMS41Mi0xLjMyLDMuMDMtMy42NCw0LjY4Yy0xLjgzLDEuMy0yLjg5LDIuMjgtMy4zMywzLjE0Yy0wLjM3LDAuNzMtMC4yMywxLjQsMC4zLDIuMTYgYzAuNzksMS4xMiwyLjI0LDIuNDksNC4xMSw0LjI1YzAuNzctMS43NCwxLjY5LTMuMjEsMi43NC00LjQxYzEuMi0xLjM3LDIuNTctMi4zOSw0LjExLTMuMDhjMS43LTAuNzYsMy41Ny0xLjEsNS42LTEuMDMgYzIuMDIsMC4wNiw0LjIsMC41Miw2LjUzLDEuMzVjMC40NSwwLjE2LDAuNzksMC40OSwwLjk4LDAuODljMC4xOSwwLjM5LDAuMjIsMC44NSwwLjA3LDEuMjlsLTAuMDIsMC4wNSBjLTAuMTYsMC40NC0wLjQ5LDAuNzctMC44OCwwLjk1Yy0wLjM5LDAuMTktMC44NSwwLjIyLTEuMjksMC4wN2wtMC4wNC0wLjAxYy0xLjk0LTAuNjktMy43MS0xLjA4LTUuMzEtMS4xNCBjLTEuNTgtMC4wNy0zLDAuMTctNC4yNSwwLjczYy0xLjI0LDAuNTUtMi4zNCwxLjQ0LTMuMzEsMi42NmMtMC45OCwxLjI1LTEuODEsMi44NS0yLjQ5LDQuODJsMCwwYy0wLjA2LDAuMTctMC4xNSwwLjMzLTAuMjUsMC40OCBjLTAuMDksMC4xMi0wLjIsMC4yMy0wLjMyLDAuMzJsLTAuMDIsMC4wM2MtMC4wMSwwLjAyLTAuMDQsMC4wNS0wLjA4LDAuMDljLTAuMTIsMC4xMy0wLjI2LDAuMjMtMC40LDAuMzEgYy0wLjEzLDAuMDctMC4yNiwwLjEzLTAuNCwwLjE2Yy0wLjAyLDAuMDEtMC4wNSwwLjAyLTAuMDgsMC4wMmwtMC4wMSwwYy0xLjY2LDAuMzctMi45MywwLjg2LTMuODksMS40OSBjLTAuOTMsMC42MS0xLjU1LDEuMzUtMS45NCwyLjI1Yy0wLjQzLDEtMC42MiwyLjI0LTAuNjMsMy43M2MtMC4wMSwxLjUzLDAuMTgsMy4zMiwwLjQ5LDUuNDFsMCwwLjAyIGMwLjAxLDAuMDUsMC4wMSwwLjExLDAuMDEsMC4xN2MwLjksMS4xMywxLjk1LDIuMDksMy4xMiwyLjkxYzEuMjMsMC44NiwyLjYsMS41Niw0LjEsMi4xM2MxLjYxLDAuNjIsMy4zNiwxLjA4LDUuMjMsMS40MSBjMS44NywwLjMzLDMuODYsMC41NCw1Ljk1LDAuNjVjMC4xLDAsMC4xOSwwLjAyLDAuMjgsMC4wNGwwLDBjMC4wOSwwLjAyLDAuMTgsMC4wNCwwLjI2LDAuMDhjMS4wOSwwLjM0LDIuNCwwLjQzLDMuODksMC4zMSBjMS41My0wLjEyLDMuMjMtMC40Niw1LjA2LTAuOTVjMS45My0wLjUyLDMuOTgtMS4yMiw2LjEtMi4wMmMyLjEyLTAuOCw0LjMzLTEuNzIsNi41Ni0yLjY4bDAuMDMtMC4wMSBjMC4wNS0wLjAyLDAuMTEtMC4wNCwwLjE2LTAuMDZjMC4wNy0wLjAyLDAuMTMtMC4wNCwwLjE5LTAuMDVMODUsNjkuMTJWNjIuMWMwLTAuMDMsMC0wLjA3LDAuMDEtMC4xbDAtMC4wNSBjMC4xLTEuMTUsMC4zLTIuMTksMC41OS0zLjFjMC4zLTAuOTMsMC42OS0xLjczLDEuMTgtMi40MWMwLjUzLTAuNzQsMS4xNy0xLjMzLDEuOTEtMS43N2MwLjczLTAuNDMsMS41Ni0wLjcxLDIuNDgtMC44MyBjMC4wNi0wLjAxLDAuMS0wLjAyLDAuMTQtMC4wMmwwLjAxLDBjMC4wNSwwLDAuMDktMC4wMSwwLjEzLTAuMDFsMS4yOSwwLjAydjBsMC4wNSwwYzIuNzksMC4wNCw1LjM2LDAuMDcsNy4zLTIuMTIgYzEtMS4xMiwxLjY0LTIuMywyLjAxLTMuNTJjMC4zNy0xLjIyLDAuNDYtMi40OCwwLjM0LTMuNzVjLTAuMTItMS4zNC0wLjQ3LTIuNjktMC45NS00LjA0Yy0wLjQ5LTEuMzYtMS4xMy0yLjY5LTEuODMtMy45OCBjLTAuMjMtMC40Mi0wLjI2LTAuODktMC4xNC0xLjMxYzAuMTItMC40MiwwLjQxLTAuOCwwLjgzLTEuMDJsMC4wMSwwYzAuNDEtMC4yMiwwLjg4LTAuMjYsMS4zLTAuMTNjMC40MiwwLjEyLDAuOCwwLjQxLDEuMDIsMC44MyBsMCwwYzAuNzksMS40NCwxLjUxLDIuOTcsMi4wNyw0LjUzYzAuNTcsMS41OCwwLjk3LDMuMiwxLjEyLDQuODNjMC4xNSwxLjcsMC4wMywzLjQtMC40Nyw1LjA2Yy0wLjUsMS42Ni0xLjM4LDMuMjctMi43Myw0Ljc5IGMtMi45OSwzLjM2LTYuMzMsMy4zMS05Ljk1LDMuMjZ2MGwtMC4wNSwwYy0wLjIzLDAtMC40OS0wLjAxLTEuMS0wLjAxYy0wLjQzLDAuMDYtMC44MSwwLjE5LTEuMTQsMC4zOSBjLTAuMzMsMC4yLTAuNjIsMC40Ni0wLjg3LDAuOGMtMC4yOSwwLjQtMC41MywwLjkxLTAuNzIsMS41MWMtMC4xOSwwLjYyLTAuMzIsMS4zMy0wLjQsMi4xNXY2LjEybDEwLjkzLTIuODJsMCwwbDAuMDIsMCBjMC4wMi0wLjAxLDAuMDQtMC4wMSwwLjA3LTAuMDJsMTMtMi41NGMwLjYzLTAuNDEsMS4yMi0wLjg1LDEuNzYtMS4zMWMwLjU4LTAuNDksMS4xLTAuOTksMS41Ni0xLjUxIGMxLjQzLTEuNTksMi4zOS0zLjM3LDIuOTctNS4yN2MwLjYyLTIuMDUsMC43OS00LjI1LDAuNTktNi40OWMtMC4xOS0yLjE3LTAuNzItNC4zOC0xLjUyLTYuNTVjLTAuODUtMi4zMi0xLjk5LTQuNTktMy4zNC02LjczIGMtMC45NC0xLjQ5LTEuOTktMi45Mi0zLjEtNC4yNWMtMS4xMy0xLjM0LTIuMzItMi41OC0zLjU0LTMuNjhjLTAuMS0wLjA5LTAuMTktMC4xOS0wLjI2LTAuMjljLTAuMDctMC4xLTAuMTMtMC4yLTAuMTctMC4zMSBsLTAuMDEtMC4wM2MtMS4wNy0yLjY1LTIuMjctNS4xOC0zLjc0LTcuNDdjLTEuNDYtMi4yOC0zLjItNC4zMi01LjM0LTYuMDFjLTIuMTQtMS42OS00LjctMy4wNC03Ljg0LTMuOTQgYy0zLjE2LTAuOTEtNi45LTEuMzctMTEuMzYtMS4yNmMtMC4xMSwwLTAuMjEsMC0wLjMtMC4wMmMtMC4wOS0wLjAxLTAuMTgtMC4wNC0wLjI3LTAuMDZsLTAuMTYtMC4wNSBjLTAuODUsMC41OS0xLjYsMS4yMS0yLjI1LDEuODdjLTAuNywwLjctMS4yOCwxLjQyLTEuNzYsMi4xOGMtMC40OCwwLjc3LTAuODYsMS41Ny0xLjE0LDIuNGMtMC4yOCwwLjg0LTAuNDYsMS43MS0wLjU0LDIuNjEgYy0wLjA0LDAuNDMtMC4yMywwLjgtMC41MiwxLjA4Yy0wLjI4LDAuMjctMC42NCwwLjQ0LTEuMDQsMC40N2MtMC4wMywwLTAuMDYsMC4wMS0wLjA5LDAuMDFoLTAuMDFjLTEuNTUsMC4wOS0yLjkxLDAuNDItNC4wOSwwLjk2IGMtMS4yNSwwLjU3LTIuMzEsMS4zNy0zLjE5LDIuMzdjLTAuOTIsMS4wMy0xLjY2LDIuMjctMi4yNCwzLjY4Yy0wLjYxLDEuNDYtMS4wNSwzLjEtMS4zMyw0Ljg2YzAuMTksMC40NiwwLjM0LDAuOTQsMC40NiwxLjQzIGMwLjEzLDAuNTIsMC4yMywxLjA1LDAuMzQsMS41OGMwLjE2LDAuODQsMC4zMywxLjY4LDAuNiwyLjM0YzAuMjQsMC41OCwwLjU3LDEuMDIsMS4wOCwxLjE5YzAuNDUsMC4xNSwwLjgsMC40NiwwLjk5LDAuODYgYzAuMiwwLjM5LDAuMjUsMC44NiwwLjEsMS4zMWMtMC4xNSwwLjQ1LTAuNDcsMC44LTAuODYsMC45OWMtMC4zOSwwLjItMC44NiwwLjI1LTEuMzEsMC4xbC0wLjA0LTAuMDIgYy0xLjQ3LTAuNS0yLjM0LTEuNDItMi45MS0yLjU0Yy0wLjU1LTEuMDktMC43OS0yLjMzLTEuMDMtMy41OGMtMC4wNi0wLjMyLTAuMTItMC42My0wLjItMC45OWwtMC4wMS0wLjA0IGMtMC4wNS0wLjI0LTAuMTEtMC40OC0wLjE4LTAuN2MtMS42Ni0xLjI1LTMuNTctMC44Mi01LjQyLDAuMjl2MGMtMS45OSwxLjE5LTMuOTQsMy4xNC01LjUsNC43Yy0wLjMzLDAuMzMtMC42NSwwLjY1LTAuOTUsMC45NCBjLTAuMywwLjI5LTAuNTksMC41Ny0wLjg5LDAuODRjLTAuMzUsMC4zMi0wLjgsMC40Ni0xLjI0LDAuNDRjLTAuNDMtMC4wMi0wLjg1LTAuMjEtMS4xNi0wLjU1bDAsMGMtMC4wMi0wLjAyLTAuMDQtMC4wNC0wLjA1LTAuMDYgYy0wLjI5LTAuMzUtMC40Mi0wLjc4LTAuNC0xLjJjMC4wMi0wLjQzLDAuMjEtMC44NSwwLjU1LTEuMTZsMCwwYzAuMDItMC4wMiwwLjA0LTAuMDMsMC4wNi0wLjA1YzAuNDQtMC40LDEuMDItMC45OCwxLjY1LTEuNjEgYzAtMC4wMSwwLjAzLTAuMDMsMC4wNC0wLjA0YzEuNzEtMS43MiwzLjgtMy44MSw2LjExLTUuMjNjMi4yMi0xLjM2LDQuNjMtMi4wOCw3LjA3LTEuMjVjMC4zNi0xLjY4LDAuODYtMy4yNSwxLjUtNC42OSBjMC42OS0xLjU0LDEuNTYtMi45MywyLjYyLTQuMTJjMS4wOS0xLjIyLDIuMzctMi4yMywzLjg1LTIuOThjMS4zMS0wLjY2LDIuNzktMS4xMyw0LjQ0LTEuMzVjMC4xNi0wLjg0LDAuMzgtMS42NiwwLjY4LTIuNDYgYzAuMzQtMC45MiwwLjc4LTEuOCwxLjMyLTIuNjVjMC40NS0wLjcyLDAuOTgtMS40MSwxLjU3LTIuMDdjMC4zOS0wLjQ0LDAuODEtMC44NiwxLjI2LTEuMjdjLTEuNjgtMC40NC0zLjM1LTAuODUtNS4wMS0xLjIyIGMtMS45MS0wLjQyLTMuOC0wLjc4LTUuNjctMS4wN2wtMC4wNywwLjAzYy0wLjYyLDAuMjMtMS4yLDAuNjgtMS43MywxLjI5Yy0wLjYyLDAuNzEtMS4xOCwxLjY0LTEuNjcsMi42NiBjLTAuNjUsMS4zNi0xLjE2LDIuODctMS41NCw0LjMxYy0wLjQ5LDEuODQtMC43NywzLjU5LTAuODcsNC44MmMtMC4wNCwwLjQ3LTAuMjcsMC44OS0wLjYsMS4xN2MtMC4zMywwLjI4LTAuNzcsMC40NC0xLjIzLDAuNCBsLTAuMDQsMGMtMC40Ni0wLjA0LTAuODctMC4yNy0xLjE1LTAuNmMtMC4yOC0wLjMzLTAuNDQtMC43Ny0wLjQtMS4yM2wwLTAuMDRjMC4xMi0xLjM4LDAuNDQtMy4zNSwwLjk5LTUuNDIgYzAuNDMtMS42NCwxLjAxLTMuMzUsMS43NS00LjljMC4zNi0wLjc1LDAuNzUtMS40NywxLjItMi4xM2MwLjIyLTAuMzMsMC40NC0wLjY0LDAuNjgtMC45M2MtMC44NS0wLjA3LTEuNjktMC4xMi0yLjU0LTAuMTYgYy0xLjE3LTAuMDUtMi4zNC0wLjA1LTMuNS0wLjAyYy00LjA5LDAuMTItOC4xNSwwLjc2LTEyLjIxLDIuMDljLTMuODksMS4yOC03Ljc3LDMuMTktMTEuNjksNS45MWMwLjQ1LDAuMjksMC44NywwLjYxLDEuMjgsMC45NCBjMC42MSwwLjUxLDEuMTcsMS4wNiwxLjY4LDEuNjVjMC43MSwwLjgzLDEuMywxLjc1LDEuNzYsMi43MmMwLjQ1LDAuOTUsMC43NiwxLjk1LDAuOTIsMi45OGMwLjA3LDAuNDctMC4wNiwwLjkyLTAuMzIsMS4yOCBjLTAuMjYsMC4zNS0wLjY2LDAuNjEtMS4xMywwLjY4Yy0wLjQ3LDAuMDctMC45Mi0wLjA2LTEuMjgtMC4zMmMtMC4zNS0wLjI2LTAuNjEtMC42Ni0wLjY4LTEuMTNjLTAuMTEtMC43MS0wLjMzLTEuNC0wLjY0LTIuMDYgYy0wLjMyLTAuNjgtMC43NS0xLjMzLTEuMjYtMS45M2MtMC41Mi0wLjYxLTEuMTMtMS4xNy0xLjgyLTEuNjZjLTAuNjYtMC40Ny0xLjM4LTAuODgtMi4xNS0xLjE5Yy0wLjc4LDAuNDItMS41NSwwLjg1LTIuMjksMS4zIGMtMC44MiwwLjQ5LTEuNjIsMS4wMS0yLjM5LDEuNTRjLTEuMDgsMC43NS0yLjExLDEuNTYtMy4wOSwyLjQ0Yy0wLjg1LDAuNzYtMS42NSwxLjU3LTIuMzksMi40NGMxLjkyLDEuNTcsMi42OCwzLjI0LDIuODIsNC45OSBjMC4xNSwxLjgyLTAuMzgsMy42OS0wLjk0LDUuNjVjMCwwLjAyLTAuMDEsMC4wNC0wLjAyLDAuMDdjLTEuMDEsMy41Ny0yLjEzLDcuNTcsMi44MSwxMS43OWMwLjM2LDAuMzEsMC41NiwwLjc0LDAuNiwxLjE3IGMwLjAzLDAuNDQtMC4xLDAuODktMC40MSwxLjI1Yy0wLjMxLDAuMzYtMC43NCwwLjU2LTEuMTcsMC42Yy0wLjQ0LDAuMDMtMC44OS0wLjEtMS4yNS0wLjQxYy0zLjMxLTIuODItNC42LTUuNTQtNC45LTguMTMgYy0wLjMtMi41NywwLjM4LTQuOTcsMS4wMi03LjIzYzAuNDItMS40OCwwLjgyLTIuODksMC43NS00LjE0Yy0wLjA2LTEuMDgtMC40OS0yLjEtMS42LTMuMDJjLTEuNDgsMS42Ny0yLjg1LDMuNC00LjA3LDUuMjMgYy0xLjMsMS45NS0yLjQxLDQuMDItMy4yOSw2LjI0Yy0wLjk4LDIuNDktMS42Niw1LjE5LTEuOTUsOC4xNGMtMC4yOSwyLjk2LTAuMTksNi4xOSwwLjM4LDkuNzVjMC4zLDEuODgsMC42NCwzLjU1LDEuMDgsNS4wNCBjMC40NCwxLjQ2LDAuOTgsMi43NiwxLjcsMy45MWMwLjcsMS4xMiwxLjU5LDIuMTMsMi43NSwzLjA3QzEwLjY4LDY2LjA0LDEyLjEyLDY2LjkxLDEzLjksNjcuNzRMMTMuOSw2Ny43NHogTTg2LjgyLDQyLjQ1IGMyLjIxLDIuMDUsMi45MSwzLjYxLDIuNjUsNS4xNmMtMC4yNiwxLjU2LTEuNSwyLjk3LTMuMTUsNC44N2wwLDBjLTAuNzgsMC44OS0xLjY3LDEuOTItMi41MiwzLjA3Yy0wLjI4LDAuMzgtMC42OSwwLjYxLTEuMTMsMC42OCBjLTAuNDMsMC4wNi0wLjg5LTAuMDQtMS4yNy0wLjMyYy0wLjM4LTAuMjgtMC42MS0wLjY5LTAuNjgtMS4xM2MtMC4wNi0wLjQzLDAuMDQtMC44OSwwLjMyLTEuMjdjMS0xLjM0LDEuOS0yLjM4LDIuNjgtMy4yOCBsMC4wMS0wLjAxYzEtMS4xNSwxLjc1LTIuMDEsMS45My0yLjhjMC4xNS0wLjY3LTAuMTItMS4zNy0xLjA1LTIuMzJsLTAuMzcsMC4xNHYwYy0wLjIsMC4wNy0wLjQ5LDAuMTgtMC44MywwLjMgYy0wLjMyLDAuMTEtMC42NywwLjI0LTEuMDMsMC4zN2MtMC4zOCwwLjE0LTAuOCwwLjMxLTEuMjMsMC40OWMtMC4xNywwLjA3LTAuMzIsMC4xNC0wLjQ3LDAuMjFsLTAuNDgsMC4yMiBjLTAuMzYsMC4xNy0wLjczLDAuMzQtMS4xLDAuNWMtMC4zOSwwLjE2LTAuNzgsMC4zMS0xLjE4LDAuNDNjLTAuNTMsMC4xNi0xLjA5LDAuMzQtMS41NiwwLjQ5bC0wLjAzLDAuMDEgYy0xLjI4LDAuNC0xLjk2LDAuNjItMi45LDAuNjZjLTAuNSwwLjAyLTEtMC4wMi0xLjYzLTAuMTNjLTAuNjItMC4xLTEuMzQtMC4yNi0yLjMzLTAuNDdsLTAuOTUtMC4yIGMtMC4wMy0wLjAxLTAuMDUtMC4wMS0wLjA4LTAuMDJsLTAuMS0wLjAzbC0zLjk4LTEuMzNjLTAuMDMtMC4wMS0wLjA1LTAuMDEtMC4wNy0wLjAyYy0wLjQ0LTAuMTUtMC43Ny0wLjQ2LTAuOTctMC44NSBjLTAuMTktMC4zOC0wLjI0LTAuODQtMC4xMS0xLjI4bDAuMDItMC4wNmMwLjE1LTAuNDQsMC40Ni0wLjc3LDAuODUtMC45N2MwLjM5LTAuMTksMC44NC0wLjI0LDEuMjgtMC4xMSBjMC4wMywwLjAxLDAuMDUsMC4wMiwwLjA3LDAuMDNsMy44NSwxLjI4bDAuOSwwLjE5YzAuODgsMC4xOSwxLjUzLDAuMzMsMi4wNCwwLjQxYzAuNDgsMC4wOCwwLjgxLDAuMTIsMS4wOCwwLjExIGMwLjQzLTAuMDIsMC45Ny0wLjE5LDEuOTgtMC41MWMwLjI1LTAuMDcsMC40OS0wLjE2LDAuNzQtMC4yM2MwLjMtMC4wOSwwLjYxLTAuMTksMC45MS0wLjI4YzAuNjEtMC4xOCwxLjIxLTAuNDYsMS44MS0wLjc0IGwwLjUyLTAuMjRjMC4xOC0wLjA4LDAuMzYtMC4xNiwwLjU1LTAuMjRjMS4wNi0wLjQ1LDEuODMtMC43MiwyLjQ1LTAuOTRjMC42Mi0wLjIyLDAuOTQtMC4zMywxLjAyLTAuNTUgYzAuMTMtMC4zMiwwLjA4LTEtMC4wMy0yLjM2Yy0wLjEyLTEuNTYtMC4xNy0yLjgtMC4wOS0zLjg3YzAuMDgtMS4xLDAuMzEtMi4wMSwwLjc2LTIuODdjMC40NC0wLjg1LDEuMDUtMS41OCwxLjkxLTIuMzEgYzAuODMtMC43MSwxLjg5LTEuNDMsMy4yNC0yLjI5TDg5LjE1LDI4YzAuNDItMC4yNywwLjc0LTAuNDYsMS4wMS0wLjYzbDAuMDUtMC4wM2MwLjc3LTAuNDcsMS4yMS0wLjc0LDEuNDItMS4xMiBjMC4yMy0wLjQsMC4yOS0xLjA0LDAuMzEtMi4yNmMwLjAxLTAuNzEsMC4wNC0xLjM2LDAuMTMtMS45OGMwLjA5LTAuNjUsMC4yNC0xLjI1LDAuNS0xLjgyYzAuMy0wLjY0LDAuNzEtMS4yLDEuMjgtMS42OCBjMC41Ni0wLjQ3LDEuMjgtMC44NSwyLjE5LTEuMTRjMC40NS0wLjE0LDAuOTItMC4wOSwxLjMxLDAuMTFjMC4zOSwwLjIsMC43LDAuNTYsMC44NSwxLjAxYzAuMTQsMC40NSwwLjA5LDAuOTItMC4xMSwxLjMxIGMtMC4yLDAuMzktMC41NiwwLjctMS4wMSwwLjg1Yy0wLjQyLDAuMTMtMC43MywwLjI5LTAuOTYsMC40NmMtMC4yLDAuMTUtMC4zNCwwLjMzLTAuNDMsMC41MmMtMC4xMiwwLjI2LTAuMiwwLjYtMC4yNCwwLjk5IGMtMC4wNSwwLjQzLTAuMDcsMC45MS0wLjA4LDEuNDNjLTAuMDQsMi4wNy0wLjE2LDMuMTctMC42Niw0LjAyYy0wLjUxLDAuODctMS4zMSwxLjM2LTIuNzQsMi4yNGwtMC41MSwwLjMxbC0wLjQ1LDAuMjhsLTAuMSwwLjA3IGMtMS4xNCwwLjczLTIuMDIsMS4zMS0yLjY3LDEuODRjLTAuNjIsMC41LTEuMDMsMC45NS0xLjI3LDEuNDJjLTAuMjQsMC40Ny0wLjM2LDEuMDQtMC40LDEuOGMtMC4wNCwwLjgsMC4wMSwxLjgyLDAuMTEsMy4xMSBjMC4wNiwwLjgyLDAuMTEsMS40OSwwLjE0LDIuMUM4Ni44NCw0MS43MSw4Ni44NCw0Mi4xMSw4Ni44Miw0Mi40NUw4Ni44Miw0Mi40NXogTTY3LjA3LDY3Ljg1YzAuMzYsMC4yOCwwLjU4LDAuNjcsMC42NSwxLjA5IGMwLjA3LDAuNDMtMC4wMiwwLjg5LTAuMywxLjI4bC0wLjAxLDAuMDFjLTAuMjgsMC4zOC0wLjY4LDAuNjEtMS4xMSwwLjY4Yy0wLjQzLDAuMDctMC44OS0wLjAyLTEuMjgtMC4zbDAsMCBjLTAuMjUtMC4xOC0wLjQ4LTAuMzctMC42OS0wLjU4Yy0wLjIyLTAuMjEtMC40Mi0wLjQ0LTAuNi0wLjY4Yy0wLjU0LTAuNzEtMC45My0xLjUzLTEuMTYtMi40MWMtMC4yNC0wLjkxLTAuMzItMS44OS0wLjI1LTIuODYgYzAuMDYtMC45MiwwLjI2LTEuODYsMC41OC0yLjc1YzAuMzEtMC44NywwLjc0LTEuNzEsMS4yOC0yLjQ2bDAsMGMwLjI1LTAuMzQsMC41Mi0wLjY3LDAuODEtMC45OGMwLjI5LTAuMywwLjU5LTAuNTcsMC45Mi0wLjgyIEw2NS45OSw1N2MwLjQ4LTAuMzYsMC45OS0wLjY4LDEuNTMtMC45NmMwLjU0LTAuMjgsMS4xMS0wLjUyLDEuNy0wLjcyYzAuNi0wLjIsMS4yMi0wLjM3LDEuODctMC41YzAuNjQtMC4xMywxLjMxLTAuMjIsMi0wLjI4IGwwLjE0LTAuMDFoNmMwLjQ4LDAsMC45MSwwLjE5LDEuMjIsMC41bDAuMDMsMC4wM2MwLjI5LDAuMzEsMC40NywwLjczLDAuNDcsMS4xOGMwLDAuNDgtMC4xOSwwLjkxLTAuNSwxLjIyIGMtMC4zMSwwLjMxLTAuNzQsMC41LTEuMjIsMC41aC01Ljk1Yy0wLjUzLDAuMDUtMS4wNCwwLjEyLTEuNTQsMC4yMmMtMC41LDAuMS0wLjk4LDAuMjItMS40MiwwLjM3Yy0wLjQyLDAuMTQtMC44MywwLjMxLTEuMjEsMC41MSBjLTAuMzcsMC4xOS0wLjcyLDAuNC0xLjA0LDAuNjRMNjgsNTkuNzljLTAuMTksMC4xNS0wLjM3LDAuMzEtMC41NCwwLjQ4Yy0wLjE4LDAuMTgtMC4zNCwwLjM4LTAuNDksMC41OSBjLTAuMzUsMC40OC0wLjYzLDEuMDMtMC44NCwxLjYxYy0wLjIxLDAuNTktMC4zNCwxLjIxLTAuMzgsMS44MmwwLDAuMDFjLTAuMDQsMC41OSwwLDEuMTYsMC4xMywxLjY3IGMwLjEyLDAuNDgsMC4zMSwwLjkxLDAuNTksMS4yN2wwLjAyLDAuMDNjMC4wOCwwLjEsMC4xNiwwLjE5LDAuMjUsMC4yOGwwLDBjMC4wOSwwLjA5LDAuMTksMC4xNywwLjMsMC4yNUw2Ny4wNyw2Ny44NUw2Ny4wNyw2Ny44NSB6IE00MC41OCw2NS40OWMtMC40NSwwLjExLTAuOSwwLjAzLTEuMjgtMC4ybDAsMGMtMC4zOC0wLjIzLTAuNjctMC42LTAuNzktMS4wNmMtMC4xMi0wLjQ2LTAuMDMtMC45MiwwLjE5LTEuM2wwLDAgYzAuMjMtMC4zOCwwLjYtMC42NywxLjA2LTAuNzljMy45MS0wLjk5LDYuMjctMS4wNiw4LjEzLTAuNGMxLjg4LDAuNjcsMy4xNSwyLjA0LDQuOTMsMy45NGwwLjIsMC4yMmMwLjczLDAuNzgsMS4zMywxLjQxLDEuODcsMS45IGMwLjUxLDAuNDcsMC45NywwLjgyLDEuNDIsMS4wNWMwLjQzLDAuMjIsMC45LDAuMzYsMS40OSwwLjQ0YzAuNjIsMC4wOSwxLjM2LDAuMTEsMi4yOCwwLjFoMGMwLjQ3LTAuMDEsMC45LDAuMTgsMS4yMiwwLjQ4IGMwLjMxLDAuMywwLjUxLDAuNzMsMC41MiwxLjIxdjAuMDFoMGwwLDAuMDVjLTAuMDEsMC40NS0wLjE5LDAuODctMC40OCwxLjE3Yy0wLjMsMC4zMS0wLjczLDAuNTEtMS4yLDAuNTJoLTAuMDF2MGwtMC4wNCwwIGMtMS4xOCwwLjAyLTIuMTQtMC4wMi0yLjk4LTAuMTZjLTAuODgtMC4xNC0xLjY0LTAuMzgtMi4zNy0wLjc2Yy0wLjcxLTAuMzYtMS4zNS0wLjgzLTIuMDMtMS40NGMtMC42Ni0wLjU5LTEuMzYtMS4zMi0yLjItMi4yMiBsLTAuMi0wLjIyYy0xLjMzLTEuNDMtMi4yOS0yLjQ2LTMuNi0yLjkyYy0xLjMzLTAuNDYtMy4xLTAuMzktNi4wOSwwLjM3TDQwLjU4LDY1LjQ5TDQwLjU4LDY1LjQ5eiBNNzcuNiwyMy43NSBjLTAuMTEtMC4zMS0wLjI0LTAuNi0wLjM5LTAuODhjLTAuMi0wLjM2LTAuNDQtMC42OS0wLjY5LTAuOTdjLTAuMjgtMC4zMi0wLjU4LTAuNTktMC44Ny0wLjgxYy0wLjMxLTAuMjMtMC42MS0wLjQtMC44OC0wLjUxbDAsMCBjLTAuNDQtMC4xNy0wLjc3LTAuNTEtMC45NS0wLjkxYy0wLjE4LTAuNC0wLjItMC44Ny0wLjAzLTEuMzFsMCwwYzAuMTctMC40NCwwLjUxLTAuNzcsMC45MS0wLjk1YzAuNC0wLjE4LDAuODctMC4yLDEuMzEtMC4wMyBjMC41MiwwLjIsMS4wOCwwLjUxLDEuNjMsMC45MWMwLjUsMC4zNywxLDAuODIsMS40NiwxLjM1YzAuMjgsMC4zMiwwLjU1LDAuNjcsMC43OSwxLjA0YzAuMTQsMC4yMSwwLjI3LDAuNDMsMC4zOSwwLjY1IGMwLjIzLTAuMTEsMC40Ny0wLjIyLDAuNzQtMC4zNGwwLjAzLTAuMDFjMC40My0wLjE5LDAuOTEtMC4zOSwxLjQ1LTAuNjFjMC41NC0wLjIyLDEuMTQtMC40NywxLjgzLTAuNzcgYzAuNjgtMC4zLDEuNDQtMC42NCwyLjMtMS4wNmMwLjQzLTAuMjEsMC45LTAuMjIsMS4zMS0wLjA3YzAuNDIsMC4xNCwwLjc4LDAuNDUsMC45OCwwLjg4YzAuMjEsMC40MywwLjIyLDAuOSwwLjA3LDEuMzEgYy0wLjE0LDAuNDItMC40NSwwLjc4LTAuODgsMC45OGMtMC44NywwLjQyLTEuNjcsMC43OS0yLjM5LDEuMWMtMC42OSwwLjMtMS4zMiwwLjU2LTEuODksMC44Yy0wLjAyLDAuMDEtMC4wNSwwLjAyLTAuMDgsMC4wMyBjLTIuNzIsMS4xMy0zLjMxLDEuMzktMy42LDQuNTRsLTAuMDEsMC4xMWMtMC4xOCwxLjg5LTAuMzEsMy4zNi0wLjgzLDQuNzZjLTAuNTIsMS40Mi0xLjQxLDIuNzEtMy4wOCw0LjIgYy0wLjM1LDAuMzItMC44LDAuNDYtMS4yNCwwLjQzYy0wLjQ0LTAuMDMtMC44Ny0wLjIyLTEuMTktMC41N2MtMC4zMi0wLjM1LTAuNDYtMC44LTAuNDMtMS4yNGMwLjAzLTAuNDQsMC4yMi0wLjg3LDAuNTctMS4xOSBjMS4xOC0xLjA1LDEuOC0xLjk3LDIuMTYtMi45OGMwLjM3LTEuMDQsMC40OC0yLjIxLDAuNjItMy43MWwwLjAxLTAuMTFjMC4wOS0wLjk5LDAuMi0xLjgsMC4zNS0yLjQ3IEM3Ny4yMiwyNC43MSw3Ny4zOSwyNC4xOSw3Ny42LDIzLjc1TDc3LjYsMjMuNzV6IE00Ljg2LDQ1Ljg4YzAtMC4wMiwwLTAuMDUsMC0wLjA3YzAuMDMtMC40NSwwLjIzLTAuODYsMC41NC0xLjE1IGMwLjMyLTAuMywwLjc1LTAuNDgsMS4yMS0wLjQ2djBjMC4wMiwwLDAuMDUsMCwwLjA3LDBjMC40NSwwLjAzLDAuODYsMC4yMywxLjE1LDAuNTRjMC4zLDAuMzIsMC40OCwwLjc2LDAuNDYsMS4yMyBjLTAuMDYsMS44MiwwLjUyLDIuOTQsMS40NSwzLjczYzAuOTgsMC44MywyLjM4LDEuMzQsMy44NiwxLjg4YzIuMjEsMC44MSw0LjU1LDEuNjYsNi40NiwzLjQyYzEuOTIsMS43NywzLjM3LDQuNDEsMy43MSw4Ljc0IGMwLjA0LDAuNDctMC4xMiwwLjkyLTAuNDEsMS4yNWMtMC4yOSwwLjM0LTAuNywwLjU2LTEuMTcsMC42Yy0wLjQ3LDAuMDQtMC45Mi0wLjEyLTEuMjUtMC40MWMtMC4zNC0wLjI5LTAuNTYtMC43LTAuNi0xLjE3IGMtMC4yNi0zLjI2LTEuMzUtNS4yMy0yLjgtNi41NGwtMC4wMy0wLjAzYy0xLjQ2LTEuMzEtMy4zMy0xLjk5LTUuMDktMi42M2MtMi4wMS0wLjczLTMuOTEtMS40My01LjMyLTIuNzEgQzUuNjYsNTAuNzksNC43Nyw0OC45Miw0Ljg2LDQ1Ljg4TDQuODYsNDUuODhMNC44Niw0NS44OHogTTg1LjI4LDcyLjU5YzAuNjgsMC4zLDEuMzcsMC41NCwyLjA5LDAuNzMgYzEuMTUsMC4zLDIuMzQsMC40OCwzLjU3LDAuNTNjMS42OSwwLjA3LDMuNDYtMC4wOCw1LjMtMC40MmMxLjg1LTAuMzQsMy43Ny0wLjg3LDUuNzUtMS41NmMwLjQ1LTAuMTYsMC45Mi0wLjEyLDEuMzEsMC4wOCBjMC40LDAuMTksMC43MiwwLjUzLDAuODcsMC45OGMwLjE2LDAuNDUsMC4xMiwwLjkyLTAuMDgsMS4zMWMtMC4xOSwwLjQtMC41MywwLjcyLTAuOTgsMC44N2MtMi4xNiwwLjc2LTQuMjgsMS4zNC02LjMzLDEuNzEgYy0yLjA2LDAuMzctNC4wNiwwLjU0LTUuOTksMC40NmMtMS45MS0wLjA4LTMuNzUtMC40LTUuNDktMC45OWMtMS42OC0wLjU3LTMuMjgtMS4zOC00Ljc3LTIuNDdsLTUuNDYsMS40MSBjMS4xMywxLjM4LDIuMzIsMi41NiwzLjU5LDMuNTRjMS40NCwxLjExLDIuOTgsMS45NCw0LjYzLDIuNDljMS44LDAuNTksMy43NSwwLjg0LDUuODUsMC43MWMyLjEyLTAuMTMsNC40LTAuNjUsNi44NS0xLjU3IGMwLjQ0LTAuMTcsMC45MS0wLjE0LDEuMzEsMC4wNGMwLjQsMC4xOCwwLjczLDAuNTIsMC45LDAuOTZjMC4xNywwLjQ0LDAuMTQsMC45MS0wLjA0LDEuMzFjLTAuMTgsMC40LTAuNTIsMC43My0wLjk2LDAuOSBjLTIuODIsMS4wNy01LjQ3LDEuNjYtNy45NiwxLjhjLTIuNSwwLjE0LTQuODQtMC4xNi03LjAyLTAuODhjLTIuMDktMC42OS00LjAzLTEuNzYtNS44My0zLjE3Yy0xLjY5LTEuMzMtMy4yNi0yLjk3LTQuNzEtNC44OSBjLTAuNDksMC4yLTAuOTksMC40MS0xLjUxLDAuNjJjLTAuNDEsMC4xNy0wLjgzLDAuMzQtMS4yNiwwLjUxYzEuMTIsMS42MSwyLjI5LDMuMDQsMy41LDQuMjljMS4zNCwxLjM5LDIuNzIsMi41NSw0LjE0LDMuNDggYzEuMjksMC44NCwyLjU5LDEuNDksMy45MSwxLjkyYzEuMjgsMC40MiwyLjU2LDAuNjUsMy44NCwwLjY3bDAuMTEtMC4wMmwwLjA0LDBjMC4wNS0wLjAxLDAuMDktMC4wMSwwLjEzLTAuMDEgYzQuMzUtMC4yMyw3Ljk5LTAuNzcsMTAuOTgtMS42OWMyLjk2LTAuOTEsNS4zLTIuMTksNy4wOC0zLjkyYzEuNjctMS42MywyLjg4LTMuNjgsMy43LTYuMjRjMC43OC0yLjQ0LDEuMTktNS4zMywxLjMtOC43MyBsLTcuNTQsMS40N0w4NS4yOCw3Mi41OUw4NS4yOCw3Mi41OXogTTg2LjU3LDkxLjIxbDEuNzUsMTUuNTljMC4wNSwwLjQ2LTAuMSwwLjkxLTAuMzcsMS4yNWMtMC4yNywwLjM0LTAuNjgsMC41OC0xLjE1LDAuNjMgbC0wLjAyLDBjLTAuNDYsMC4wNS0wLjkxLTAuMS0xLjI1LTAuMzdjLTAuMzQtMC4yNy0wLjU4LTAuNjgtMC42My0xLjE1bC0xLjc4LTE1Ljg0Yy0xLjM3LTAuMTItMi43My0wLjQyLTQuMDctMC44OSBjLTEuNDktMC41Mi0yLjk2LTEuMjYtNC4zOS0yLjJjLTEuNjctMS4xLTMuMzEtMi40Ny00Ljg3LTQuMTFjLTEuNDctMS41NC0yLjg3LTMuMzEtNC4xOS01LjI5Yy0wLjc3LDAuMjgtMS41NCwwLjU0LTIuMjksMC43OCBjLTAuODksMC4yOS0xLjc1LDAuNTQtMi41OCwwLjc3bC0wLjI0LDAuMDZjMS41NywyLjgsMy4zLDQuOTIsNS4wNiw2LjY1YzEuODgsMS44NSwzLjgsMy4yNSw1LjU4LDQuNTQgYzIuNjQsMS45Myw1LjAxLDMuNjYsNi43LDYuMThjMS43LDIuNTQsMi42OCw1LjgzLDIuNTEsMTAuODVjLTAuMDIsMC40Ny0wLjIyLDAuOS0wLjU0LDEuMmMtMC4zMiwwLjMtMC43NiwwLjQ4LTEuMjMsMC40NiBjLTAuNDctMC4wMS0wLjktMC4yMi0xLjItMC41NGMtMC4zLTAuMzItMC40OC0wLjc2LTAuNDYtMS4yM2MwLjE0LTQuMTQtMC42Ny02Ljg1LTIuMDctOC45MmMtMS40MS0yLjA5LTMuNDUtMy41OC01LjczLTUuMjMgYy0xLjk3LTEuNDQtNC4xLTIuOTktNi4yLTUuMDljLTIuMDYtMi4wNi00LjA5LTQuNjMtNS45Mi04LjEyYy0xLjI2LDAuMi0yLjQ3LDAuMzEtMy42LDAuMjljLTEuMjQtMC4wMS0yLjM4LTAuMTctMy40My0wLjQ4IGMtMi4yLTAuMTItNC4zMS0wLjM0LTYuMzEtMC43MWMtMi4wMy0wLjM3LTMuOTQtMC44OC01LjcxLTEuNTVjLTEuNzItMC42Ni0zLjMyLTEuNDctNC43Ni0yLjQ4Yy0xLjM3LTAuOTUtMi42MS0yLjA2LTMuNjktMy4zNiBjLTEuNDIsMC4xOC0yLjgxLDAuMy00LjE4LDAuMzRjLTEuNDYsMC4wNC0yLjg5LDAtNC4yOC0wLjEzYy0xLjUyLTAuMTQtMy0wLjQtNC40My0wLjc3Yy0xLjQzLTAuMzctMi44Mi0wLjg3LTQuMTYtMS40OSBjLTIuMS0wLjk4LTMuOC0yLjAyLTUuMi0zLjE2Yy0xLjQxLTEuMTYtMi41Mi0yLjQyLTMuNDEtMy44NGMtMC44Ny0xLjM5LTEuNTItMi45MS0yLjAzLTQuNjFjLTAuNS0xLjY3LTAuODgtMy41My0xLjIyLTUuNjEgYy0wLjYzLTMuODgtMC43My03LjQyLTAuNDEtMTAuNjdjMC4zMi0zLjI3LDEuMDgtNi4yNSwyLjE3LTkuMDFjMS4wOC0yLjc1LDIuNDgtNS4yNyw0LjEyLTcuNjJjMS42My0yLjM1LDMuNDgtNC41Myw1LjQ2LTYuNjIgYzAuOTgtMS4yMywyLjA1LTIuMzUsMy4xOC0zLjM5YzEuMTMtMS4wMywyLjM0LTEuOTgsMy42LTIuODdjMS4yNC0wLjg2LDIuNTMtMS42NiwzLjg2LTIuNDFjMS4zMi0wLjc1LDIuNjctMS40NCw0LjAzLTIuMDkgYzQuMzctMy4wOSw4LjcyLTUuMjUsMTMuMDctNi42N2M0LjM2LTEuNDMsOC43My0yLjExLDEzLjEzLTIuMjRjNC4zNC0wLjEzLDguNywwLjI5LDEzLjEyLDEuMDdjNC4zOSwwLjc3LDguODQsMS45LDEzLjM5LDMuMjEgYzQuODEtMC4wOSw4Ljg3LDAuNDMsMTIuMzMsMS40NmMzLjUsMS4wMyw2LjM5LDIuNTcsOC44Miw0LjQ5YzIuNDEsMS45LDQuMzQsNC4xNSw1Ljk3LDYuNjRjMS42LDIuNDUsMi44OSw1LjExLDQuMDMsNy44OSBjMS4yOCwxLjE3LDIuNTEsMi40NywzLjY4LDMuODdjMS4xOCwxLjQyLDIuMjgsMi45MywzLjI4LDQuNTFjMS40OSwyLjM2LDIuNzUsNC44OCwzLjY5LDcuNDVjMC44OSwyLjQ0LDEuNDgsNC45MiwxLjY5LDcuMzcgYzAuMjQsMi42OSwwLjAyLDUuMzQtMC43NSw3Ljg1Yy0wLjcyLDIuMzMtMS45Miw0LjUyLTMuNjksNi41Yy0wLjYsMC42Ni0xLjI1LDEuMy0xLjk2LDEuODljLTAuNjksMC41OC0xLjQ0LDEuMTMtMi4yNiwxLjY1IGMtMC4xLDAuMDctMC4yMSwwLjE0LTAuMzMsMC4xOWMtMC4xMSwwLjA1LTAuMjMsMC4wOS0wLjM2LDAuMTFsLTIuMzUsMC40NmMtMC4wNyw0LjA2LTAuNTUsNy41My0xLjQ5LDEwLjQ4IGMtMC45OSwzLjA4LTIuNDgsNS42LTQuNTcsNy42M2MtMi4wMiwxLjk3LTQuNTcsMy40NC03LjcxLDQuNUM5NC4zLDkwLjI2LDkwLjc0LDkwLjg5LDg2LjU3LDkxLjIxTDg2LjU3LDkxLjIxeiIvPjwvZz48L3N2Zz4=;" vertex="1" parent="WQfHvuFEGdMXnjnuVvza-58">
          <mxGeometry width="77.15541666666668" height="69" as="geometry" />
        </mxCell>
        <mxCell id="WQfHvuFEGdMXnjnuVvza-35" value="Neural net" style="text;html=1;whiteSpace=wrap;strokeColor=none;fillColor=none;align=center;verticalAlign=middle;rounded=0;" vertex="1" parent="WQfHvuFEGdMXnjnuVvza-58">
          <mxGeometry x="8.575147679324914" y="69" width="60" height="30" as="geometry" />
        </mxCell>
        <mxCell id="WQfHvuFEGdMXnjnuVvza-64" value="" style="group" vertex="1" connectable="0" parent="WQfHvuFEGdMXnjnuVvza-36">
          <mxGeometry x="309.99999999999994" y="100" width="101.60000000000002" height="107.62" as="geometry" />
        </mxCell>
        <mxCell id="WQfHvuFEGdMXnjnuVvza-6" value="" style="shape=image;verticalLabelPosition=bottom;verticalAlign=top;imageAspect=0;aspect=fixed;image=data:image/svg+xml,PHN2ZyB4bWxuczp4bGluaz0iaHR0cDovL3d3dy53My5vcmcvMTk5OS94bGluayIgeG1sbnM9Imh0dHA6Ly93d3cudzMub3JnLzIwMDAvc3ZnIiB4bWw6c3BhY2U9InByZXNlcnZlIiBzdHlsZT0iZW5hYmxlLWJhY2tncm91bmQ6bmV3IDAgMCAxMTkuMjUgMTIyLjg4IiB2aWV3Qm94PSIwIDAgMTE5LjI0OTk5MjM3MDYwNTQ3IDEyMi44ODk5OTkzODk2NDg0NCIgeT0iMHB4IiB4PSIwcHgiIGlkPSJMYXllcl8xIiB2ZXJzaW9uPSIxLjEiIHdpZHRoPSIxMTkuMjQ5OTkyMzcwNjA1NDciIGhlaWdodD0iMTIyLjg4OTk5OTM4OTY0ODQ0Ij48Zz48cGF0aCBkPSJNODYuMjgsMTA0LjExYy0wLjQ3LTAuMTktMC45OC0wLjMtMS41Mi0wLjNjLTAuNTQsMC0xLjA1LDAuMTEtMS41MiwwLjNjLTAuNDcsMC4yLTAuOSwwLjQ4LTEuMjUsMC44NGwtMC4wMywwLjAyIGMtMC4yLDAuMi0wLjM5LDAuNDMtMC41NCwwLjY4Yy0wLjA4LDAuMTMtMC4xNiwwLjI3LTAuMjMsMC40MmgtNi4zMXYtNS40OGMtMC45NywwLjQ1LTEuOTgsMC43OS0zLjAxLDEgYy0wLjE4LDAuMDQtMC4zNSwwLjA3LTAuNTMsMC4xdjYuMTRjMCwwLjQ5LDAuMiwwLjkzLDAuNTIsMS4yNWMwLjMyLDAuMzIsMC43NiwwLjUyLDEuMjUsMC41Mmg4LjE0YzAuMDYsMC4xMiwwLjEzLDAuMjQsMC4yMSwwLjM2IGMwLjE0LDAuMjEsMC4zLDAuNDEsMC40OCwwLjU5bDAuMDMsMC4wM2MwLjM2LDAuMzYsMC44LDAuNjYsMS4yOSwwLjg2YzAuNDcsMC4xOSwwLjk4LDAuMywxLjUyLDAuM2MwLjUyLDAsMS4wMy0wLjEsMS40OS0wLjI5IGwwLjAzLTAuMDFjMC40OS0wLjIsMC45Mi0wLjUsMS4yOS0wLjg2YzAuMzYtMC4zNiwwLjY2LTAuOCwwLjg2LTEuMjljMC4xOS0wLjQ3LDAuMy0wLjk4LDAuMy0xLjUyYzAtMC41My0wLjExLTEuMDQtMC4zLTEuNTIgYy0wLjItMC40OS0wLjUtMC45My0wLjg2LTEuMjlDODcuMjEsMTA0LjYxLDg2Ljc3LDEwNC4zMSw4Ni4yOCwxMDQuMTFMODYuMjgsMTA0LjExeiBNNTcuNDMsNjYuNjFoLTcuNGwtMS4wNiwzLjQ4aC02LjY2IGw3Ljk1LTIxLjEyaDcuMTRsNy45MiwyMS4xMmgtNi44M0w1Ny40Myw2Ni42MUw1Ny40Myw2Ni42MXogTTU2LjA1LDYyLjAzbC0yLjMxLTcuNTlsLTIuMzIsNy41OUg1Ni4wNUw1Ni4wNSw2Mi4wM3ogTTY3LjE2LDQ4Ljk2IGg2LjU1djIxLjEyaC02LjU1VjQ4Ljk2TDY3LjE2LDQ4Ljk2eiBNNjIuMTcsMjcuMzFjLTEuMDgsMC43OC0yLjA4LDEuODMtMi45NSwzLjE5Yy0wLjA0LDAuMDctMC4xLDAuMTMtMC4xNywwLjE3IGMtMC4yNywwLjE3LTAuNjMsMC4wOS0wLjgtMC4xN2MtMC44Ny0xLjM2LTEuODctMi40MS0yLjk1LTMuMTljLTEuMTYtMC44NC0yLjQxLTEuMzctMy43LTEuNjNsLTAuMDIsMCBjLTEuMjYtMC4yNi0yLjU1LTAuMjYtMy43OS0wLjA0Yy0xLjMxLDAuMjMtMi41OCwwLjcxLTMuNzIsMS4zN2MtMS4xMywwLjY2LTIuMTUsMS41MS0zLDIuNDljLTAuODIsMC45NS0xLjQ4LDIuMDQtMS45MSwzLjIxbDAsMCBjLTAuMDcsMC4xOC0wLjEzLDAuMzctMC4xOSwwLjU3Yy0wLjA1LDAuMTgtMC4xMSwwLjM4LTAuMTUsMC41OGMtMC4wNSwwLjI2LTAuMjcsMC40NS0wLjU1LDAuNDZjLTEuMzQsMC4yLTIuNjcsMC42OS0zLjkxLDEuNDIgYy0xLjI2LDAuNzUtMi40MywxLjc3LTMuNDQsMi45OWMtMSwxLjIyLTEuODQsMi42Ni0yLjQ0LDQuMjZjLTAuNTYsMS41LTAuOSwzLjE1LTAuOTcsNC45Yy0wLjAxLDAuMjMtMC4wMSwwLjQ1LTAuMDEsMC42OCBjMCwwLjIxLDAuMDEsMC40MywwLjAxLDAuNjZjMC4wMSwwLjE5LTAuMDcsMC4zOS0wLjI0LDAuNTFjLTAuODIsMC41OS0xLjU2LDEuMi0yLjIyLDEuODNjLTAuNjcsMC42NS0xLjI2LDEuMzItMS43NywyLjAxIGMtMC44MywxLjEzLTEuNDQsMi4zMS0xLjg1LDMuNWMtMC40MywxLjI0LTAuNjQsMi41MS0wLjY2LDMuNzZjLTAuMDEsMS4yLDAuMTUsMi4zOSwwLjQ5LDMuNTRjMC4zNCwxLjE3LDAuODYsMi4zMSwxLjUzLDMuMzdsMCwwIGMwLjM4LDAuNjEsMC44MSwxLjIxLDEuMjgsMS43N2MwLjQ4LDAuNTcsMSwxLjExLDEuNTYsMS42MmMwLjE0LDAuMTMsMC4yMiwwLjM0LDAuMTgsMC41NGMtMC4xNiwwLjc2LTAuMjQsMS41MS0wLjI3LDIuMjUgYy0wLjAyLDAuNzYsMC4wMiwxLjUxLDAuMTIsMi4yNGMwLjE5LDEuMzQsMC41OCwyLjYyLDEuMTMsMy44YzAuNTgsMS4yNiwxLjM0LDIuNDEsMi4yMiwzLjQyYzAuODUsMC45OSwxLjgyLDEuODUsMi44NiwyLjU2IGMxLjA1LDAuNzIsMi4xNiwxLjI4LDMuMywxLjY3YzAuNTEsMC4xNywxLjAzLDAuMzEsMS41NiwwLjQxYzAuNSwwLjEsMSwwLjE2LDEuNDksMC4xOGMwLjI3LTAuMDEsMC41MiwwLjE4LDAuNTgsMC40NiBjMC4yNiwxLjE5LDAuNzQsMi4zMSwxLjQsMy4zMmMwLjY5LDEuMDYsMS41NiwyLDIuNTYsMi43OGMxLjI2LDAuOTgsMi43NCwxLjcyLDQuMywyLjExYzEuNDcsMC4zNywzLjAyLDAuNDQsNC41NCwwLjEyIGMxLjM2LTAuMjgsMi42OC0wLjg2LDMuOS0xLjc4YzEuMTItMC44NSwyLjE2LTEuOTksMy4wMy0zLjQ3YzAuMDUtMC4wOSwwLjEzLTAuMTYsMC4yMy0wLjIxYzAuMjgtMC4xNSwwLjYzLTAuMDQsMC43OCwwLjI0IGMwLjcyLDEuMzQsMS42LDIuNDEsMi41OCwzLjIyYzEuMDYsMC44NywyLjIzLDEuNDYsMy40NiwxLjhjMS41NywwLjQzLDMuMjEsMC40Myw0LjgsMC4xYzEuNy0wLjM1LDMuMzQtMS4wOSw0Ljc1LTIuMTEgYzEuMTEtMC43OSwyLjA5LTEuNzYsMi44Ny0yLjg2YzAuNzQtMS4wMywxLjI5LTIuMTgsMS42MS0zLjM5YzAuMDQtMC4yMywwLjIyLTAuNDMsMC40Ny0wLjQ3YzEuNDctMC4yNiwyLjkyLTAuODcsNC4yNS0xLjc4IGMxLjMzLTAuOTEsMi41NC0yLjExLDMuNTMtMy41NGMwLjkxLTEuMzIsMS42NC0yLjg0LDIuMTEtNC41YzAuNDQtMS41NSwwLjY1LTMuMjMsMC41OC01Yy0wLjAyLTAuMiwwLjA3LTAuNCwwLjI1LTAuNTIgYzAuODYtMC41OSwxLjYyLTEuMjEsMi4zLTEuODRjMC42OS0wLjY2LDEuMy0xLjM0LDEuODItMi4wNWwwLDBjMC44LTEuMDgsMS4zOS0yLjIsMS44LTMuMzVjMC40Mi0xLjE5LDAuNjQtMi40LDAuNjgtMy42MSBjMC4wMy0xLjE3LTAuMTEtMi4zMy0wLjQxLTMuNDdjLTAuMy0xLjE1LTAuNzctMi4yNi0xLjM4LTMuMzFsLTAuMDItMC4wMmMtMC40LTAuNjktMC44Ny0xLjM1LTEuMzktMS45OSBjLTAuNTItMC42NC0xLjExLTEuMjQtMS43NC0xLjgxYy0wLjE1LTAuMTMtMC4yMy0wLjM0LTAuMTktMC41NWMwLjE0LTAuNjksMC4yMy0xLjM4LDAuMjYtMi4wNmMwLjAzLTAuNjksMC4wMS0xLjM3LTAuMDYtMi4wNCBjLTAuMTUtMS4zOS0wLjUyLTIuNzEtMS4wNi0zLjk0Yy0wLjU3LTEuMy0xLjMzLTIuNS0yLjIyLTMuNTVjLTAuODYtMS4wMi0xLjg1LTEuOTEtMi45MS0yLjY1Yy0xLjA2LTAuNzQtMi4xOS0xLjMyLTMuMzQtMS43MSBsLTAuMDMtMC4wMWMtMC42MS0wLjIxLTEuMjMtMC4zNi0xLjg0LTAuNDZsLTAuMDIsMGMtMC42LTAuMS0xLjItMC4xNC0xLjc5LTAuMTNjLTAuMjcsMC4wMi0wLjUzLTAuMTYtMC42LTAuNDQgYy0wLjEtMC40MS0wLjIzLTAuODEtMC4zOC0xLjJjLTAuMTYtMC40LTAuMzQtMC43OS0wLjU1LTEuMThjLTAuNTQtMS0xLjI1LTEuOTItMi4wOC0yLjcxYy0wLjg1LTAuODEtMS44Mi0xLjUtMi44Ni0yLjAzIGMtMS4wNy0wLjU0LTIuMjQtMC45Mi0zLjQ0LTEuMDljLTEuMTQtMC4xNi0yLjMxLTAuMTQtMy40NiwwLjFDNjQuNiwyNS45NCw2My4zMywyNi40Nyw2Mi4xNywyNy4zMUw2Mi4xNywyNy4zMXogTTc4LjUyLDM4LjU3IGMwLjA3LTAuMjIsMC4yNy0wLjM5LDAuNTItMC40MWMwLjQyLTAuMDMsMC44NS0wLjAxLDEuMjgsMC4wNmMwLjQ0LDAuMDcsMC44OCwwLjE4LDEuMzIsMC4zM2MwLjgzLDAuMjgsMS42NiwwLjcxLDIuNDMsMS4yNSBjMC43NiwwLjUzLDEuNDgsMS4xOCwyLjEsMS45MmwwLjAxLDAuMDJjMC42NSwwLjc3LDEuMiwxLjYzLDEuNjEsMi41N2MwLjM5LDAuODgsMC42NSwxLjgyLDAuNzYsMi44MSBjMC4wNywwLjY2LDAuMDcsMS4zNS0wLjAxLDIuMDVjLTAuMDcsMC42NS0wLjIyLDEuMzItMC40NSwxLjk5bC0wLjAxLDAuMDRjLTAuMTQsMC40Mi0wLjEzLDAuODYsMCwxLjI1YzAuMTQsMC40LDAuNCwwLjc2LDAuNzcsMSBsMC4wMywwLjAyYzAuNywwLjUyLDEuMzIsMS4wOSwxLjg2LDEuNjljMC41NiwwLjYxLDEuMDQsMS4yNywxLjQ0LDEuOTVjMC40NCwwLjc1LDAuNzgsMS41MywwLjk5LDIuMzMgYzAuMjIsMC43OSwwLjMyLDEuNTksMC4yOSwyLjM4Yy0wLjAyLDAuODItMC4xOCwxLjY0LTAuNDcsMi40NWMtMC4yOCwwLjc3LTAuNjksMS41My0xLjIzLDIuMjdsLTAuMDEsMC4wMSBjLTAuNDksMC42Ny0xLjExLDEuMzMtMS44NCwxLjk2Yy0wLjcsMC42LTEuNTEsMS4xNy0yLjQ0LDEuNzJsLTAuMDMsMC4wMmMtMC4zNywwLjIxLTAuNjQsMC41My0wLjgsMC45IGMtMC4xNiwwLjM3LTAuMjEsMC43OC0wLjEzLDEuMThsMC4wMSwwLjA4YzAuMTksMS41MywwLjEsMi45OS0wLjIxLDQuMzJjLTAuMzQsMS40NS0wLjkzLDIuNzUtMS43LDMuODYgYy0wLjU5LDAuODUtMS4yNywxLjU4LTIsMi4xNmMtMC43NSwwLjYtMS41NiwxLjA0LTIuMzksMS4zMWwtMC4wMSwwYy0wLjMsMC4wOS0wLjYzLTAuMDgtMC43Mi0wLjM4IGMtMS4xMy0zLjY5LTMuMDgtNC44OC02LjM4LTYuNThsLTAuMDctMC4wNGMtMC40Ni0wLjIyLTAuOTYtMC4yNC0xLjQxLTAuMWMtMC40NSwwLjE0LTAuODQsMC40NS0xLjA3LDAuOWwtMC4wMywwLjA2IGMtMC4yMiwwLjQ2LTAuMjQsMC45Ni0wLjEsMS40MWMwLjE1LDAuNDUsMC40NywwLjg1LDAuOTMsMS4wOWMyLjc2LDEuNDEsNC44LDIuNDgsNC43Nyw1Ljk0Yy0wLjAxLDEuMDMtMC4zMywyLjAzLTAuODcsMi45MyBjLTAuNTcsMC45NS0xLjM5LDEuOC0yLjM0LDIuNDljLTAuOTcsMC43LTIuMDYsMS4yMS0zLjE4LDEuNDZjLTEuMDcsMC4yNS0yLjE3LDAuMjYtMy4yLTAuMDJjLTEuNzQtMC40OC0yLjg3LTEuNjQtMy42My0zLjA1IGMtMC43Mi0xLjM0LTEuMTItMi45LTEuNDEtNC4zMmMtMC4wMi0wLjA1LTAuMDItMC4xMS0wLjAyLTAuMTZjMC0wLjcyLTAuNTYtMS4xOS0xLjI5LTEuNGMtMC4zMi0wLjEtMC42Ny0wLjE0LTEuMDEtMC4xNCBjLTAuMzUsMC0wLjY5LDAuMDUtMS4wMSwwLjE0Yy0wLjcyLDAuMjItMS4yOCwwLjY5LTEuMjgsMS40YzAsMC4wNS0wLjAxLDAuMDktMC4wMiwwLjE0Yy0wLjU2LDIuMjItMS4zNywzLjg5LTIuMzIsNS4wOSBjLTEuMTEsMS40MS0yLjQxLDIuMTgtMy43NSwyLjQ2Yy0wLjk4LDAuMi0xLjk5LDAuMTUtMi45NS0wLjFjLTEuMDEtMC4yNy0xLjk3LTAuNzYtMi44MS0xLjRjLTAuODMtMC42NS0xLjUyLTEuNDQtMi0yLjMzIGMtMC40Ni0wLjg1LTAuNzMtMS43OS0wLjczLTIuNzVjMC0zLjY0LDIuMi00Ljg2LDUuMTEtNi4zNWMwLjQ2LTAuMjQsMC43OC0wLjY0LDAuOTMtMS4wOWMwLjE1LTAuNDYsMC4xMi0wLjk3LTAuMTEtMS40NCBjLTAuMjQtMC40Ni0wLjY0LTAuNzgtMS4wOS0wLjkzYy0wLjQ1LTAuMTQtMC45NS0wLjEyLTEuNDEsMC4xbC0wLjAzLDAuMDFjLTMuNDMsMS43NS01LjQ4LDMuMDMtNi43MSw2Ljg0IGMtMC4wNywwLjI1LTAuMzEsMC40NC0wLjU4LDAuNDNjLTAuMzQtMC4wMS0wLjY4LTAuMDUtMS4wMy0wLjEyYy0wLjM0LTAuMDctMC42OC0wLjE2LTEtMC4yOGMtMC44MS0wLjI4LTEuNjItMC42OS0yLjM4LTEuMjEgYy0wLjc1LTAuNTItMS40NS0xLjE0LTIuMDctMS44NmMtMC42NC0wLjc0LTEuMTktMS41Ny0xLjYxLTIuNDhjLTAuNC0wLjg1LTAuNjgtMS43Ni0wLjgyLTIuNzFsMC0wLjAyIGMtMC4xLTAuNy0wLjEyLTEuNDMtMC4wNC0yLjE4YzAuMDctMC43LDAuMjItMS40MywwLjQ3LTIuMTVsMC4wMS0wLjAzYzAuMTQtMC40MSwwLjEzLTAuODQsMC4wMS0xLjIybC0wLjAxLTAuMDIgYy0wLjEzLTAuNC0wLjM5LTAuNzUtMC43NS0xbC0wLjAyLTAuMDJjLTAuNjQtMC40OC0xLjIyLTAuOTktMS43My0xLjU1Yy0wLjUyLTAuNTYtMC45OC0xLjE2LTEuMzYtMS43OCBjLTAuNDYtMC43NS0wLjgyLTEuNTUtMS4wNi0yLjM3Yy0wLjIzLTAuOC0wLjM1LTEuNjItMC4zNC0yLjQ2YzAuMDEtMC44NSwwLjE2LTEuNzIsMC40Ni0yLjU3YzAuMjktMC44MSwwLjcxLTEuNjIsMS4yOS0yLjQxIGMwLjQ5LTAuNjcsMS4wOS0xLjMzLDEuODEtMS45NmMwLjY5LTAuNjEsMS40Ny0xLjE5LDIuMzctMS43NGMwLjMzLTAuMiwwLjU3LTAuNDgsMC43My0wLjhsMC4wMS0wLjAzIGMwLjE2LTAuMzMsMC4yMi0wLjcsMC4xNy0xLjA3Yy0wLjAxLTAuMDQtMC4wMS0wLjA4LTAuMDEtMC4xMmwwLTAuMDJjLTAuMDUtMC4zNS0wLjA4LTAuNy0wLjEtMS4wNGMtMC4wMi0wLjM3LTAuMDItMC43NC0wLjAxLTEuMSBjMC4wNS0xLjMxLDAuMy0yLjU0LDAuNzEtMy42NWMwLjQ0LTEuMTksMS4wNi0yLjI2LDEuOC0zLjE3YzAuNjEtMC43NSwxLjMxLTEuMzgsMi4wNC0xLjg3YzAuNzMtMC40OSwxLjUtMC44NCwyLjI5LTEuMDRsMCwwIGMwLjMtMC4wOSwwLjYzLDAuMDgsMC43MiwwLjM4YzAuNjIsMS45NiwxLjQsMy4xOSwyLjg5LDQuNThsMC4wNiwwLjA1YzAuMzcsMC4zNCwwLjg1LDAuNSwxLjMyLDAuNDggYzAuNDctMC4wMiwwLjkzLTAuMjEsMS4yNy0wLjU4bDAuMDMtMC4wNGMwLjM0LTAuMzcsMC41LTAuODUsMC40OC0xLjMyYy0wLjAyLTAuNDctMC4yMi0wLjk0LTAuNi0xLjMgYy0xLjItMS4xMS0xLjQ3LTEuOC0xLjgzLTIuOTJjLTAuNDItMS4yOS0wLjM1LTIuNTUsMC4wNi0zLjY3YzAuMjgtMC43NywwLjcyLTEuNDksMS4yOC0yLjEyYzAuNTUtMC42MywxLjIyLTEuMTksMS45Ni0xLjYyIGwwLjAzLTAuMDJjMC43Ni0wLjQ0LDEuNTgtMC43NiwyLjQzLTAuOTJjMC44MS0wLjE1LDEuNjQtMC4xNiwyLjQ1LDAuMDFjMS4xNCwwLjI0LDIuMjYsMC44NCwzLjI1LDEuODggYzAuODcsMC45MSwxLjY0LDIuMTcsMi4yNSwzLjgzbDAuMDEsMC4wMmMwLjIxLDAuNjUsMC44OSwxLjAzLDEuNjksMS4xOGMwLjM2LDAuMDcsMC43NCwwLjA5LDEuMTEsMC4wN2wwLjAxLDAgYzAuMzgtMC4wMiwwLjc0LTAuMDksMS4wOC0wLjJjMC42LTAuMiwxLjA3LTAuNTIsMS4xOC0wLjkzdi0wLjIzYzAtMS4xNiwwLjY5LTIuMzksMS42NC0zLjRjMS4wNC0xLjEsMi40My0xLjk3LDMuNi0yLjIxIGMwLjc0LTAuMTUsMS40OS0wLjE2LDIuMjItMC4wNWMwLjc2LDAuMTIsMS41LDAuMzYsMi4yLDAuNzFMNzEuMSwzMGMwLjcxLDAuMzYsMS4zNiwwLjgyLDEuOTMsMS4zNmMwLjU2LDAuNTQsMS4wNCwxLjE1LDEuNCwxLjgyIGMwLjU3LDEuMDUsMC44MywyLjI1LDAuNjUsMy41MmMtMC4xNiwxLjExLTAuMiwxLjgxLTEuMTMsMi45MmwtMC4wMSwwLjAxYy0wLjMzLDAuMzktMC40NywwLjg4LTAuNDMsMS4zNiBjMC4wNCwwLjQ2LDAuMjUsMC45MSwwLjYyLDEuMjNsMC4wNiwwLjA1YzAuMzksMC4zMiwwLjg3LDAuNDUsMS4zNCwwLjQxYzAuNDYtMC4wNCwwLjkxLTAuMjUsMS4yMy0wLjYybDAuMDUtMC4wNyBDNzcuNzcsNDAuODUsNzguMDgsNDAuMDEsNzguNTIsMzguNTdMNzguNTIsMzguNTd6IE0xMDAuNDgsODcuNTFjLTAuMTktMC40Ny0wLjMtMC45OC0wLjMtMS41MmMwLTAuNTQsMC4xMS0xLjA1LDAuMy0xLjUyIGMwLjItMC40NywwLjQ4LTAuOSwwLjg0LTEuMjVsMC4wMi0wLjAzYzAuMi0wLjIsMC40My0wLjM5LDAuNjgtMC41NGMwLjEzLTAuMDgsMC4yNy0wLjE2LDAuNDItMC4yM3YtNi4zMWgtNy43NiBjMC4wMS0wLjQxLDAuMDEtMC44Mi0wLjAxLTEuMjRjLTAuMDItMC4yMywwLjA4LTAuNDYsMC4yOC0wLjU5YzAuOC0wLjU1LDEuNTMtMS4xMiwyLjE5LTEuNzFoNy4wNmMwLjQ5LDAsMC45MywwLjIsMS4yNSwwLjUyIGMwLjMyLDAuMzIsMC41MiwwLjc2LDAuNTIsMS4yNXY4LjE0YzAuMTIsMC4wNiwwLjI0LDAuMTMsMC4zNiwwLjIxYzAuMjEsMC4xNCwwLjQxLDAuMywwLjU5LDAuNDhsMC4wMywwLjAzIGMwLjM2LDAuMzYsMC42NiwwLjgsMC44NiwxLjI5YzAuMTksMC40NywwLjMsMC45OCwwLjMsMS41MmMwLDAuNTItMC4xLDEuMDItMC4yOSwxLjQ5bC0wLjAxLDAuMDNjLTAuMiwwLjQ5LTAuNSwwLjkyLTAuODYsMS4yOSBjLTAuMzYsMC4zNi0wLjgsMC42Ni0xLjI5LDAuODZjLTAuNDcsMC4xOS0wLjk4LDAuMy0xLjUyLDAuM2MtMC41MywwLTEuMDQtMC4xMS0xLjUyLTAuM2MtMC40OS0wLjItMC45My0wLjUtMS4yOS0wLjg2IEMxMDAuOTgsODguNDQsMTAwLjY4LDg4LDEwMC40OCw4Ny41MUwxMDAuNDgsODcuNTF6IE0xMTEuNzIsNjcuMjZoLTEwLjU1YzAuMTgtMC4zOSwwLjM0LTAuNzgsMC40OC0xLjE4IGMwLjI4LTAuNzgsMC40OC0xLjU3LDAuNi0yLjM2aDkuNDdjMC4wNy0wLjEzLDAuMTQtMC4yNiwwLjIyLTAuMzljMC4xNS0wLjI0LDAuMzMtMC40NiwwLjUyLTAuNjVjMC4zNy0wLjM3LDAuOC0wLjY2LDEuMjktMC44NiBjMC40Ny0wLjE5LDAuOTgtMC4zLDEuNTItMC4zYzAuNTIsMCwxLjAyLDAuMSwxLjQ5LDAuMjlsMC4wMywwLjAxYzAuNDksMC4yLDAuOTIsMC41LDEuMjksMC44NmMwLjM2LDAuMzYsMC42NiwwLjgsMC44NiwxLjI5IGMwLjE5LDAuNDcsMC4zLDAuOTgsMC4zLDEuNTJjMCwwLjUzLTAuMTEsMS4wNC0wLjMsMS41MmMtMC4yLDAuNDktMC41LDAuOTMtMC44NiwxLjI5Yy0wLjM2LDAuMzYtMC44LDAuNjYtMS4yOSwwLjg2IGMtMC40NywwLjE5LTAuOTgsMC4zLTEuNTIsMC4zYy0wLjUyLDAtMS4wMi0wLjEtMS40OS0wLjI5bC0wLjAzLTAuMDFjLTAuNDktMC4yLTAuOTItMC41LTEuMjktMC44NmMtMC4xOS0wLjE5LTAuMzYtMC40LTAuNTEtMC42MyBsLTAuMDItMC4wM0MxMTEuODYsNjcuNTIsMTExLjc5LDY3LjM5LDExMS43Miw2Ny4yNkwxMTEuNzIsNjcuMjZ6IE0xMTUuMDgsNTcuNThoLTEzLjI3Yy0wLjM0LTEuMTItMC44Mi0yLjIxLTEuNDItMy4yNSBsLTAuMDItMC4wM2MtMC4wNS0wLjA5LTAuMS0wLjE3LTAuMTUtMC4yNmgxMy4xVjQyLjQ5Yy0wLjEtMC4wNi0wLjItMC4xMi0wLjMtMC4xOWMtMC4yLTAuMTQtMC4zOC0wLjI5LTAuNTUtMC40NiBjLTAuMzYtMC4zNi0wLjY2LTAuOC0wLjg2LTEuMjljLTAuMTktMC40Ny0wLjMtMC45OC0wLjMtMS41MmMwLTAuNTMsMC4xMS0xLjA1LDAuMy0xLjUyYzAuMi0wLjQ5LDAuNS0wLjkyLDAuODYtMS4yOSBjMC4zNi0wLjM2LDAuOC0wLjY2LDEuMjktMC44NmMwLjQ3LTAuMTksMC45OC0wLjMsMS41Mi0wLjNjMC41MywwLDEuMDQsMC4xMSwxLjUyLDAuM2MwLjQ5LDAuMiwwLjkzLDAuNSwxLjI5LDAuODYgYzAuMzYsMC4zNiwwLjY2LDAuOCwwLjg2LDEuMjljMC4xOSwwLjQ3LDAuMywwLjk4LDAuMywxLjUyYzAsMC41Mi0wLjEsMS4wMi0wLjI5LDEuNDlsLTAuMDEsMC4wM2MtMC4yLDAuNDktMC41LDAuOTItMC44NiwxLjI5IGMtMC4yMiwwLjIyLTAuNDgsMC40Mi0wLjc1LDAuNTljLTAuMTUsMC4wOS0wLjMyLDAuMTgtMC40OCwwLjI1djEzLjEyYzAsMC40OS0wLjIsMC45My0wLjUyLDEuMjUgQzExNi4wMSw1Ny4zOCwxMTUuNTcsNTcuNTgsMTE1LjA4LDU3LjU4TDExNS4wOCw1Ny41OHogTTEwMS4yMSw0OS4wNGgtNC41MmMwLjEyLTAuNjYsMC4xOS0xLjMyLDAuMjItMS45OCBjMC4wMi0wLjUzLDAuMDItMS4wNS0wLjAxLTEuNTZoMi41NHYtNS4yMmMtMC4xNC0wLjA3LTAuMjctMC4xNC0wLjQtMC4yM2MtMC4yNC0wLjE1LTAuNDYtMC4zMy0wLjY3LTAuNTRsMCwwIGMtMC4zNi0wLjM2LTAuNjYtMC44LTAuODYtMS4yOWMtMC4xOS0wLjQ3LTAuMy0wLjk4LTAuMy0xLjUxYzAtMC41MywwLjExLTEuMDQsMC4zLTEuNTJjMC4yLTAuNDcsMC40OC0wLjksMC44My0xLjI2bDAuMDMtMC4wMyBjMC4zNi0wLjM2LDAuOC0wLjY2LDEuMjktMC44NmMwLjQ3LTAuMTksMC45OC0wLjMsMS41Mi0wLjNjMC41NCwwLDEuMDUsMC4xMSwxLjUyLDAuM2MwLjQ3LDAuMiwwLjksMC40OCwxLjI2LDAuODRsMC4wMywwLjAyIGMwLjM2LDAuMzYsMC42NSwwLjc4LDAuODUsMS4yNmwwLjAxLDAuMDNjMC4xOSwwLjQ3LDAuMywwLjk4LDAuMywxLjUyYzAsMC41My0wLjExLDEuMDUtMC4zLDEuNTJjLTAuMiwwLjQ3LTAuNDgsMC45LTAuODMsMS4yNiBsLTAuMDMsMC4wM2MtMC4xOSwwLjE5LTAuNCwwLjM2LTAuNjQsMC41MmMtMC4xMiwwLjA4LTAuMjQsMC4xNS0wLjM3LDAuMjF2Ny4wMmMwLDAuNDktMC4yLDAuOTMtMC41MiwxLjI1IEMxMDIuMTQsNDguODQsMTAxLjY5LDQ5LjA0LDEwMS4yMSw0OS4wNEwxMDEuMjEsNDkuMDR6IE0zMS4xMywxOC43N2MwLjQ3LDAuMTksMC45OCwwLjMsMS41MiwwLjNjMC41NCwwLDEuMDUtMC4xMSwxLjUyLTAuMyBjMC40Ny0wLjIsMC45LTAuNDgsMS4yNS0wLjg0bDAuMDMtMC4wMmMwLjItMC4yLDAuMzktMC40MywwLjU0LTAuNjhjMC4wOC0wLjEzLDAuMTYtMC4yNywwLjIzLTAuNDJoNi4zMXY1LjQ1IGMxLjExLTAuNTksMi4zMS0xLjAyLDMuNTQtMS4yN3YtNS45NWMwLTAuNDktMC4yLTAuOTMtMC41Mi0xLjI1Yy0wLjMyLTAuMzItMC43Ni0wLjUyLTEuMjUtMC41MmgtOC4xNCBjLTAuMDYtMC4xMi0wLjEzLTAuMjQtMC4yMS0wLjM2Yy0wLjE0LTAuMjEtMC4zLTAuNDEtMC40OC0wLjU5bC0wLjAzLTAuMDNjLTAuMzYtMC4zNi0wLjgtMC42Ni0xLjI5LTAuODYgYy0wLjQ3LTAuMTktMC45OC0wLjMtMS41Mi0wLjNjLTAuNTIsMC0xLjAzLDAuMS0xLjQ5LDAuMjlsLTAuMDMsMC4wMWMtMC40OSwwLjItMC45MiwwLjUtMS4yOSwwLjg2Yy0wLjM2LDAuMzYtMC42NiwwLjgtMC44NiwxLjI5IGMtMC4xOSwwLjQ3LTAuMywwLjk4LTAuMywxLjUyYzAsMC41MywwLjExLDEuMDQsMC4zLDEuNTJjMC4yLDAuNDksMC41LDAuOTMsMC44NiwxLjI5QzMwLjIxLDE4LjI3LDMwLjY0LDE4LjU3LDMxLjEzLDE4Ljc3IEwzMS4xMywxOC43N3ogTTUxLjM5LDcuNTN2MTMuNjZjMS4xOCwwLjM0LDIuMzMsMC44OCwzLjQxLDEuNjZsMC4xMiwwLjA5YzAtMC4wMywwLjAxLTAuMDYsMC4wMS0wLjA5VjcuNTMgYzAuMTMtMC4wNywwLjI2LTAuMTQsMC4zOS0wLjIyYzAuMjQtMC4xNSwwLjQ2LTAuMzMsMC42NS0wLjUyYzAuMzYtMC4zNywwLjY2LTAuOCwwLjg2LTEuMjljMC4xOS0wLjQ3LDAuMy0wLjk4LDAuMy0xLjUyIGMwLTAuNTItMC4xLTEuMDItMC4yOS0xLjQ5bC0wLjAxLTAuMDNjLTAuMi0wLjQ5LTAuNS0wLjkyLTAuODYtMS4yOWMtMC4zNi0wLjM2LTAuOC0wLjY2LTEuMjktMC44NmMtMC40Ny0wLjE5LTAuOTgtMC4zLTEuNTItMC4zIGMtMC41MywwLTEuMDQsMC4xMS0xLjUyLDAuM2MtMC40OSwwLjItMC45MywwLjUtMS4yOSwwLjg2Yy0wLjM2LDAuMzYtMC42NiwwLjgtMC44NiwxLjI5Yy0wLjE5LDAuNDctMC4zLDAuOTgtMC4zLDEuNTIgYzAsMC41MiwwLjEsMS4wMiwwLjI5LDEuNDlsMC4wMSwwLjAzYzAuMiwwLjQ5LDAuNSwwLjkyLDAuODYsMS4yOWMwLjE5LDAuMTksMC40LDAuMzYsMC42MywwLjUxTDUxLDcuMzEgQzUxLjEzLDcuMzksNTEuMjUsNy40Niw1MS4zOSw3LjUzTDUxLjM5LDcuNTN6IE02MS4wNiw0LjE3djE5Ljk4YzAuNDgtMC40OSwwLjk5LTAuOTIsMS41MS0xLjNjMC42NS0wLjQ3LDEuMzMtMC44NiwyLjAzLTEuMTYgVjUuOTNoMTEuNTVjMC4wNiwwLjEsMC4xMiwwLjIsMC4xOSwwLjNjMC4xNCwwLjIsMC4yOSwwLjM4LDAuNDYsMC41NWMwLjM2LDAuMzYsMC44LDAuNjYsMS4yOSwwLjg2YzAuNDcsMC4xOSwwLjk4LDAuMywxLjUyLDAuMyBjMC41MywwLDEuMDUtMC4xMSwxLjUyLTAuM2MwLjQ5LTAuMiwwLjkzLTAuNSwxLjI5LTAuODZjMC4zNi0wLjM2LDAuNjYtMC44LDAuODYtMS4yOWMwLjE5LTAuNDcsMC4zLTAuOTgsMC4zLTEuNTIgYzAtMC41My0wLjExLTEuMDQtMC4zLTEuNTJjLTAuMi0wLjQ5LTAuNS0wLjkzLTAuODYtMS4yOUM4Mi4wNCwwLjgsODEuNiwwLjUsODEuMTEsMC4zQzgwLjY0LDAuMTEsODAuMTMsMCw3OS42LDAgYy0wLjUyLDAtMS4wMiwwLjEtMS40OSwwLjI5TDc4LjA4LDAuM2MtMC40OSwwLjItMC45MiwwLjUtMS4yOSwwLjg2Yy0wLjIyLDAuMjItMC40MiwwLjQ4LTAuNTksMC43NSBjLTAuMDksMC4xNS0wLjE4LDAuMzItMC4yNSwwLjQ4SDYyLjgzYy0wLjQ5LDAtMC45MywwLjItMS4yNSwwLjUyQzYxLjI2LDMuMjQsNjEuMDYsMy42OCw2MS4wNiw0LjE3TDYxLjA2LDQuMTd6IE02OS42LDE4LjA0djIuNzQgYzAuMzYsMC4wMiwwLjczLDAuMDUsMS4wOSwwLjExYzAuODQsMC4xMiwxLjY2LDAuMzMsMi40NSwwLjYydi0xLjY5aDUuMjJjMC4wNywwLjE0LDAuMTQsMC4yNywwLjIzLDAuNCBjMC4xNSwwLjI0LDAuMzMsMC40NiwwLjU0LDAuNjdsMCwwYzAuMzYsMC4zNiwwLjgsMC42NiwxLjI5LDAuODZjMC40NywwLjE5LDAuOTgsMC4zLDEuNTEsMC4zczEuMDQtMC4xMSwxLjUyLTAuMyBjMC40Ny0wLjIsMC45LTAuNDgsMS4yNi0wLjgzbDAuMDMtMC4wM2MwLjM2LTAuMzYsMC42Ni0wLjgsMC44Ni0xLjI5YzAuMTktMC40NywwLjMtMC45OCwwLjMtMS41MmMwLTAuNTQtMC4xMS0xLjA1LTAuMy0xLjUyIGMtMC4yLTAuNDctMC40OC0wLjktMC44NC0xLjI2bC0wLjAyLTAuMDNjLTAuMzYtMC4zNi0wLjc4LTAuNjUtMS4yNi0wLjg1bC0wLjAzLTAuMDFjLTAuNDctMC4xOS0wLjk4LTAuMy0xLjUyLTAuMyBjLTAuNTMsMC0xLjA1LDAuMTEtMS41MiwwLjNjLTAuNDcsMC4yLTAuOSwwLjQ4LTEuMjYsMC44M2wtMC4wMywwLjAzYy0wLjE5LDAuMTktMC4zNiwwLjQtMC41MiwwLjY0IGMtMC4wOCwwLjEyLTAuMTUsMC4yNC0wLjIxLDAuMzdoLTcuMDJjLTAuNDksMC0wLjkzLDAuMi0xLjI1LDAuNTJDNjkuOCwxNy4xMSw2OS42LDE3LjU1LDY5LjYsMTguMDRMNjkuNiwxOC4wNHogTTE4Ljc3LDM1LjIgYzAuMTksMC40NywwLjMsMC45OCwwLjMsMS41MmMwLDAuNTQtMC4xMSwxLjA1LTAuMywxLjUyYy0wLjIsMC40Ny0wLjQ4LDAuOS0wLjg0LDEuMjVsLTAuMDIsMC4wM2MtMC4yLDAuMi0wLjQzLDAuMzktMC42OCwwLjU0IGMtMC4xMywwLjA4LTAuMjcsMC4xNi0wLjQyLDAuMjN2Ni4zMWg2LjU1bDAsMC4zMWMwLDAuMjQsMC4wMSwwLjQ5LDAuMDIsMC43NWMwLjAyLDAuMjItMC4wOCwwLjQ0LTAuMjcsMC41OCBjLTAuODYsMC42MS0xLjYzLDEuMjUtMi4zMywxLjloLTUuNzJjLTAuNDksMC0wLjkzLTAuMi0xLjI1LTAuNTJjLTAuMzItMC4zMi0wLjUyLTAuNzYtMC41Mi0xLjI1di04LjE0IGMtMC4xMi0wLjA2LTAuMjQtMC4xMy0wLjM2LTAuMjFjLTAuMjEtMC4xNC0wLjQxLTAuMy0wLjU5LTAuNDhsLTAuMDMtMC4wM2MtMC4zNi0wLjM2LTAuNjYtMC44LTAuODYtMS4yOSBjLTAuMTktMC40Ny0wLjMtMC45OC0wLjMtMS41MmMwLTAuNTIsMC4xLTEuMDIsMC4yOS0xLjQ5bDAuMDEtMC4wM2MwLjItMC40OSwwLjUtMC45MiwwLjg2LTEuMjljMC4zNi0wLjM2LDAuOC0wLjY2LDEuMjktMC44NiBjMC40Ny0wLjE5LDAuOTgtMC4zLDEuNTItMC4zYzAuNTMsMCwxLjA0LDAuMTEsMS41MiwwLjNjMC40OSwwLjIsMC45MywwLjUsMS4yOSwwLjg2QzE4LjI3LDM0LjI3LDE4LjU3LDM0LjcxLDE4Ljc3LDM1LjIgTDE4Ljc3LDM1LjJ6IE03LjUzLDU1LjQ1aDkuNGMtMC4xNiwwLjM2LTAuMywwLjczLTAuNDMsMS4wOWMtMC4yOCwwLjgxLTAuNDgsMS42Mi0wLjYsMi40NEg3LjUzYy0wLjA3LDAuMTMtMC4xNCwwLjI2LTAuMjIsMC4zOSBjLTAuMTUsMC4yNC0wLjMzLDAuNDYtMC41MiwwLjY1Yy0wLjM3LDAuMzctMC44LDAuNjYtMS4yOSwwLjg2Yy0wLjQ3LDAuMTktMC45OCwwLjMtMS41MiwwLjNjLTAuNTIsMC0xLjAyLTAuMS0xLjQ5LTAuMjkgbC0wLjAzLTAuMDFjLTAuNDktMC4yLTAuOTItMC41LTEuMjktMC44NmMtMC4zNi0wLjM2LTAuNjYtMC44LTAuODYtMS4yOWMtMC4xOS0wLjQ3LTAuMy0wLjk4LTAuMy0xLjUyYzAtMC41MywwLjExLTEuMDQsMC4zLTEuNTIgYzAuMi0wLjQ5LDAuNS0wLjkzLDAuODYtMS4yOWMwLjM2LTAuMzYsMC44LTAuNjYsMS4yOS0wLjg2YzAuNDctMC4xOSwwLjk4LTAuMywxLjUyLTAuM2MwLjUyLDAsMS4wMiwwLjEsMS40OSwwLjI5bDAuMDMsMC4wMSBjMC40OSwwLjIsMC45MiwwLjUsMS4yOSwwLjg2YzAuMTksMC4xOSwwLjM2LDAuNCwwLjUxLDAuNjNsMC4wMiwwLjAzQzcuMzksNTUuMTksNy40Niw1NS4zMiw3LjUzLDU1LjQ1TDcuNTMsNTUuNDV6IE00LjE3LDY1LjEzIEgxNi40YzAuMzgsMS4yMSwwLjkzLDIuMzgsMS42MywzLjQ5bDAsMC4wMWwwLjAyLDAuMDRINS45M3YxMS41NWMwLjEsMC4wNiwwLjIsMC4xMiwwLjMsMC4xOWMwLjIsMC4xNCwwLjM4LDAuMjksMC41NSwwLjQ2IGMwLjM2LDAuMzYsMC42NiwwLjgsMC44NiwxLjI5YzAuMTksMC40NywwLjMsMC45OCwwLjMsMS41MmMwLDAuNTMtMC4xMSwxLjA1LTAuMywxLjUyYy0wLjIsMC40OS0wLjUsMC45Mi0wLjg2LDEuMjkgYy0wLjM2LDAuMzYtMC44LDAuNjYtMS4yOSwwLjg2Yy0wLjQ3LDAuMTktMC45OCwwLjMtMS41MiwwLjNjLTAuNTMsMC0xLjA0LTAuMTEtMS41Mi0wLjNjLTAuNDktMC4yLTAuOTMtMC41LTEuMjktMC44NiBDMC44LDg2LjEsMC41LDg1LjY2LDAuMyw4NS4xOEMwLjExLDg0LjcxLDAsODQuMiwwLDgzLjY2YzAtMC41MiwwLjEtMS4wMiwwLjI5LTEuNDlsMC4wMS0wLjAzYzAuMi0wLjQ5LDAuNS0wLjkyLDAuODYtMS4yOSBjMC4yMi0wLjIyLDAuNDgtMC40MiwwLjc1LTAuNTljMC4xNS0wLjA5LDAuMzItMC4xOCwwLjQ4LTAuMjVWNjYuODljMC0wLjQ5LDAuMi0wLjkzLDAuNTItMS4yNUMzLjI0LDY1LjMzLDMuNjgsNjUuMTMsNC4xNyw2NS4xMyBMNC4xNyw2NS4xM3ogTTE4LjA0LDczLjY3aDMuM2MtMC4xMSwwLjY2LTAuMTcsMS4zMS0wLjE5LDEuOTVjLTAuMDIsMC41NC0wLjAxLDEuMDcsMC4wMywxLjU5aC0xLjM3djUuMjIgYzAuMTQsMC4wNywwLjI3LDAuMTQsMC40LDAuMjNjMC4yNCwwLjE1LDAuNDYsMC4zMywwLjY3LDAuNTRsMCwwYzAuMzYsMC4zNiwwLjY2LDAuOCwwLjg2LDEuMjljMC4xOSwwLjQ3LDAuMywwLjk4LDAuMywxLjUyIHMtMC4xMSwxLjA0LTAuMywxLjUyYy0wLjIsMC40Ny0wLjQ4LDAuOS0wLjgzLDEuMjZsLTAuMDMsMC4wM2MtMC4zNiwwLjM2LTAuOCwwLjY2LTEuMjksMC44NmMtMC40NywwLjE5LTAuOTgsMC4zLTEuNTIsMC4zIGMtMC41NCwwLTEuMDUtMC4xMS0xLjUyLTAuM2MtMC40Ny0wLjItMC45LTAuNDgtMS4yNi0wLjg0bC0wLjAzLTAuMDJjLTAuMzYtMC4zNi0wLjY1LTAuNzgtMC44NS0xLjI2bC0wLjAxLTAuMDMgYy0wLjE5LTAuNDctMC4zLTAuOTgtMC4zLTEuNTJjMC0wLjUzLDAuMTEtMS4wNSwwLjMtMS41MmMwLjItMC40NywwLjQ4LTAuOSwwLjgzLTEuMjZsMC4wMy0wLjAzYzAuMTktMC4xOSwwLjQtMC4zNiwwLjY0LTAuNTIgYzAuMTItMC4wOCwwLjI0LTAuMTUsMC4zNy0wLjIxdi03LjAyYzAtMC40OSwwLjItMC45MywwLjUyLTEuMjVDMTcuMTEsNzMuODYsMTcuNTUsNzMuNjcsMTguMDQsNzMuNjdMMTguMDQsNzMuNjd6IE02Ni4wMywxMTUuMzUgdi0xMy45OWMtMS4yNS0wLjM5LTIuNDMtMS4wMi0zLjUxLTEuOTFsLTAuMDItMC4wMnYxNS45M2MtMC4xMywwLjA3LTAuMjYsMC4xNC0wLjM5LDAuMjJjLTAuMjQsMC4xNS0wLjQ2LDAuMzMtMC42NSwwLjUyIGMtMC4zNiwwLjM3LTAuNjYsMC44LTAuODYsMS4yOWMtMC4xOSwwLjQ3LTAuMywwLjk4LTAuMywxLjUyYzAsMC41MiwwLjEsMS4wMiwwLjI5LDEuNDlsMC4wMSwwLjAzYzAuMiwwLjQ5LDAuNSwwLjkyLDAuODYsMS4yOSBjMC4zNiwwLjM2LDAuOCwwLjY2LDEuMjksMC44NmMwLjQ3LDAuMTksMC45OCwwLjMsMS41MiwwLjNjMC41MywwLDEuMDQtMC4xMSwxLjUyLTAuM2MwLjQ5LTAuMiwwLjkzLTAuNSwxLjI5LTAuODYgYzAuMzYtMC4zNiwwLjY2LTAuOCwwLjg2LTEuMjljMC4xOS0wLjQ3LDAuMy0wLjk4LDAuMy0xLjUyYzAtMC41Mi0wLjEtMS4wMi0wLjI5LTEuNDlsLTAuMDEtMC4wM2MtMC4yLTAuNDktMC41LTAuOTItMC44Ni0xLjI5IGMtMC4xOS0wLjE5LTAuNC0wLjM2LTAuNjMtMC41MWwtMC4wMy0wLjAyQzY2LjI5LDExNS40OSw2Ni4xNiwxMTUuNDIsNjYuMDMsMTE1LjM1TDY2LjAzLDExNS4zNXogTTU2LjM1LDExOC43MVY5OC41NSBjLTAuNDIsMC40My0wLjg2LDAuODEtMS4zMiwxLjE2Yy0wLjcxLDAuNTQtMS40NSwwLjk3LTIuMjIsMS4zMXYxNS45NEg0MS4yNmMtMC4wNi0wLjEtMC4xMi0wLjItMC4xOS0wLjMgYy0wLjE0LTAuMi0wLjI5LTAuMzgtMC40Ni0wLjU1Yy0wLjM2LTAuMzYtMC44LTAuNjYtMS4yOS0wLjg2Yy0wLjQ3LTAuMTktMC45OC0wLjMtMS41Mi0wLjNjLTAuNTMsMC0xLjA1LDAuMTEtMS41MiwwLjMgYy0wLjQ5LDAuMi0wLjkyLDAuNS0xLjI5LDAuODZjLTAuMzYsMC4zNi0wLjY2LDAuOC0wLjg2LDEuMjljLTAuMTksMC40Ny0wLjMsMC45OC0wLjMsMS41MmMwLDAuNTMsMC4xMSwxLjA0LDAuMywxLjUyIGMwLjIsMC40OSwwLjUsMC45MywwLjg2LDEuMjljMC4zNiwwLjM2LDAuOCwwLjY2LDEuMjksMC44NmMwLjQ3LDAuMTksMC45OCwwLjMsMS41MiwwLjNjMC41MiwwLDEuMDItMC4xLDEuNDktMC4yOWwwLjAzLTAuMDEgYzAuNDktMC4yLDAuOTItMC41LDEuMjktMC44NmMwLjIyLTAuMjIsMC40Mi0wLjQ4LDAuNTktMC43NWMwLjA5LTAuMTUsMC4xOC0wLjMyLDAuMjUtMC40OGgxMy4xMmMwLjQ5LDAsMC45My0wLjIsMS4yNS0wLjUyIEM1Ni4xNSwxMTkuNjQsNTYuMzUsMTE5LjIsNTYuMzUsMTE4LjcxTDU2LjM1LDExOC43MXogTTQ3LjgxLDEwNC44NHYtMi45MWMtMC43OC0wLjA0LTEuNTYtMC4xNi0yLjMyLTAuMzUgYy0wLjQxLTAuMS0wLjgyLTAuMjMtMS4yMi0wLjM3djEuODdoLTUuMjJjLTAuMDctMC4xNC0wLjE0LTAuMjctMC4yMy0wLjRjLTAuMTUtMC4yNC0wLjMzLTAuNDYtMC41NC0wLjY3bDAsMCBjLTAuMzYtMC4zNi0wLjgtMC42Ni0xLjI5LTAuODZjLTAuNDctMC4xOS0wLjk4LTAuMy0xLjUxLTAuM2MtMC41MywwLTEuMDQsMC4xMS0xLjUyLDAuM2MtMC40NywwLjItMC45LDAuNDgtMS4yNiwwLjgzTDMyLjY3LDEwMiBjLTAuMzYsMC4zNi0wLjY2LDAuOC0wLjg2LDEuMjljLTAuMTksMC40Ny0wLjMsMC45OC0wLjMsMS41MmMwLDAuNTQsMC4xMSwxLjA1LDAuMywxLjUyYzAuMiwwLjQ3LDAuNDgsMC45LDAuODQsMS4yNmwwLjAyLDAuMDMgYzAuMzYsMC4zNiwwLjc4LDAuNjUsMS4yNiwwLjg1bDAuMDMsMC4wMWMwLjQ3LDAuMTksMC45OCwwLjMsMS41MiwwLjNjMC41MywwLDEuMDQtMC4xMSwxLjUyLTAuM2MwLjQ3LTAuMiwwLjktMC40OCwxLjI2LTAuODMgbDAuMDMtMC4wM2MwLjE5LTAuMTksMC4zNi0wLjQsMC41Mi0wLjY0YzAuMDgtMC4xMiwwLjE1LTAuMjQsMC4yMS0wLjM3aDcuMDJjMC40OSwwLDAuOTMtMC4yLDEuMjUtMC41MiBDNDcuNjEsMTA1Ljc3LDQ3LjgxLDEwNS4zMyw0Ny44MSwxMDQuODRMNDcuODEsMTA0Ljg0eiIvPjwvZz48L3N2Zz4=;" vertex="1" parent="WQfHvuFEGdMXnjnuVvza-64">
          <mxGeometry x="9.080253164557007" width="83.44208333333333" height="86.25" as="geometry" />
        </mxCell>
        <mxCell id="WQfHvuFEGdMXnjnuVvza-34" value="Machine learning" style="text;html=1;whiteSpace=wrap;strokeColor=none;fillColor=none;align=center;verticalAlign=middle;rounded=0;" vertex="1" parent="WQfHvuFEGdMXnjnuVvza-64">
          <mxGeometry y="77.62" width="101.6" height="30" as="geometry" />
        </mxCell>
        <mxCell id="WQfHvuFEGdMXnjnuVvza-33" value="Statistical model&amp;nbsp;" style="text;html=1;whiteSpace=wrap;strokeColor=none;fillColor=none;align=center;verticalAlign=middle;rounded=0;" vertex="1" parent="WQfHvuFEGdMXnjnuVvza-36">
          <mxGeometry x="432.62" y="97.25" width="100" height="30" as="geometry" />
        </mxCell>
        <mxCell id="WQfHvuFEGdMXnjnuVvza-5" value="" style="shape=image;verticalLabelPosition=bottom;verticalAlign=top;imageAspect=0;aspect=fixed;image=data:image/svg+xml,PHN2ZyB4bWxucz0iaHR0cDovL3d3dy53My5vcmcvMjAwMC9zdmciIHZpZXdCb3g9Ii0wLjAwNDc3NjI3MTA2MDEwOTEzODUgLTQuNjQ4NzAxNDA2MDQwMzQ1M2UtNyAxMjEuNzA0NzcyOTQ5MjE4NzUgMTIyLjkxOTk5ODE2ODk0NTMxIiBkYXRhLW5hbWU9IkxheWVyIDEiIGlkPSJMYXllcl8xIiB3aWR0aD0iMTIxLjcwNDc3Mjk0OTIxODc1IiBoZWlnaHQ9IjEyMi45MTk5OTgxNjg5NDUzMSI+PHRpdGxlPm1hcmtldC1yZXNlYXJjaDwvdGl0bGU+PHBhdGggZD0iTTUzLjYyLDBBNTMuNjMsNTMuNjMsMCwwLDEsOTguNSw4M2wyMy4yLDI1LjI5LTE2LDE0LjYzTDgzLjMyLDk4LjI2QTUzLjYyLDUzLjYyLDAsMSwxLDUzLjYyLDBaTTcyLjA4LDMyLjY4bC0xLjg4LTIuNGExLjI4LDEuMjgsMCwwLDEtLjI3LTEuMTdjLjMyLTEsMS40Ny0uODgsMi4yNi0uODMsMi4yNi4xNyw3LjYuMjEsOC43Ni4yNmExLjI1LDEuMjUsMCwwLDEsMS4yMSwxLjU0Yy0uMjQsMS4xOC0xLjMyLDYuODQtMS43MSw5LS4xNC43NS0uMzYsMS43MS0xLjMsMS43OGExLjI1LDEuMjUsMCwwLDEtMS4wOC0uNTNsLTEuODgtMi40LS43Ni0xLTkuMjQsN3YuMTZhNS42MSw1LjYxLDAsMSwxLTExLjIyLDBjMC0uMTIsMC0uMjUsMC0uMzdsLTYuNTEtNC43YTUuNjIsNS42MiwwLDAsMS02Ljc3LS4yOGwtNi4zMSw0LjQ5QTUuNjEsNS42MSwwLDEsMSwzMCwzOS4xMWE1LjU2LDUuNTYsMCwwLDEsMi4yNy40OGw3LjQyLTUuMjlhNS42MSw1LjYxLDAsMCwxLDExLjIyLjE2bDAsLjM3LDYuNTEsNC43YTUuNiw1LjYsMCwwLDEsNi41My4xbDguNTItNi41LS4zNi0uNDVaTTcyLDQ3LjE0aDcuNzRhLjgyLjgyLDAsMCwxLC44MS44MVY3OGEuODIuODIsMCwwLDEtLjgxLjgxSDcyYS44MS44MSwwLDAsMS0uODEtLjgxVjQ4YS44Mi44MiwwLDAsMSwuODEtLjgxWm0tMTUuMywxMC4zaDcuNzRhLjgxLjgxLDAsMCwxLC44MS44MVY3OGEuODEuODEsMCwwLDEtLjgxLjgxSDU2LjcyYS44MS44MSwwLDAsMS0uODEtLjgxVjU4LjI1YS44MS44MSwwLDAsMSwuODEtLjgxWm0tMTUuMy0xMC4zaDcuNzNBLjgxLjgxLDAsMCwxLDUwLDQ4Vjc4YS44MS44MSwwLDAsMS0uODEuODFINDEuNDJhLjgxLjgxLDAsMCwxLS44MS0uODFWNDhhLjgyLjgyLDAsMCwxLC44MS0uODFabS0xNS4zLDEyaDcuNzNhLjgxLjgxLDAsMCwxLC44MS44MVY3OGEuODEuODEsMCwwLDEtLjgxLjgxSDI2LjEyYS44MS44MSwwLDAsMS0uODEtLjgxVjU5LjkxYS44MS44MSwwLDAsMSwuODEtLjgxWk04Ny4zLDE5LjkzYTQ3LjY0LDQ3LjY0LDAsMSwwLDE0LDMzLjY5LDQ3LjQ4LDQ3LjQ4LDAsMCwwLTE0LTMzLjY5WiIvPjwvc3ZnPg==;" vertex="1" parent="WQfHvuFEGdMXnjnuVvza-36">
          <mxGeometry x="442.94000000000005" y="22.25" width="79.35" height="80" as="geometry" />
        </mxCell>
        <mxCell id="WQfHvuFEGdMXnjnuVvza-38" value="" style="shape=image;verticalLabelPosition=bottom;verticalAlign=top;imageAspect=0;aspect=fixed;image=data:image/svg+xml,PHN2ZyB4bWxucz0iaHR0cDovL3d3dy53My5vcmcvMjAwMC9zdmciIHN0cm9rZS1taXRlcmxpbWl0PSIyIiBzdHJva2UtbGluZWpvaW49InJvdW5kIiBjbGlwLXJ1bGU9ImV2ZW5vZGQiIGZpbGwtcnVsZT0iZXZlbm9kZCIgdmlld0JveD0iNiA2LjAxMzAwMDAxMTQ0NDA5MiA0OTkuOTgyOTcxMTkxNDA2MjUgNDk5Ljk3Mzk5OTAyMzQzNzUiIHdpZHRoPSI0OTkuOTgyOTcxMTkxNDA2MjUiIGhlaWdodD0iNDk5Ljk3Mzk5OTAyMzQzNzUiPjxwYXRoIGZpbGwtcnVsZT0ibm9uemVybyIgZmlsbD0iIzAxN2NlZSIgZD0iTTE0LjA2OCA1MDQuMDA4TDI1My40ODYgMjU4LjYyYzEuNTI5LTEuNTAzIDEuNjk5LTMuODk4LjUxLTUuNjU2LTE0LjUyMy0yMC4zMjQtNDEuNDQ2LTIzLjg0OS01MS4zODMtMzcuNTA1LTI5LjQ3LTQwLjQ1Mi0zNi45NDUtNjMuMzUtNDkuNi02MS45MzFhMy43MTEgMy43MTEgMCAwMC0yLjI5MiAxLjIxNGwtODYuNTQ0IDg4LjY1QzE0LjQ5MyAyOTQuMzUgNy4zNiA0MDYuNjcgNiA1MDAuNzN2LjAxN2MwIDIuNTczIDIuMTIzIDQuNjg4IDQuNjcxIDQuNjg4IDEuMzYgMCAyLjU0OC0uNTEgMy4zOTctMS40Mjd6Ii8+PHBhdGggZmlsbC1ydWxlPSJub256ZXJvIiBmaWxsPSIjMDBhZDQ2IiBkPSJNNTAzLjk0NSA0OTcuOTUzbC0yNDUuMzYzLTIzOS40MWE0LjQ4IDQuNDggMCAwMC01LjY5LS41MzRjLTIwLjI5OSAxNC41NjUtMjMuODY2IDQxLjQyLTM3LjQ1NSA1MS4zNzQtNDAuNTExIDI5LjQ4Ny02My4zNTcgMzYuOTctNjEuOTk4IDQ5LjY0MS4xNy44ODQuNTk0IDEuNjkgMS4yNzMgMi4yOTNsODguNjY3IDg2LjQ3NmM1MC45NTggNDkuNzUyIDE2My4yMzYgNTYuOTAzIDI1Ny4yNTMgNTguMTk0IDIuNjMzIDAgNC43NTYtMi4xMTUgNC43NTYtNC42ODhhNC41OSA0LjU5IDAgMDAtMS40NDMtMy4zNDZ6Ii8+PHBhdGggZmlsbC1ydWxlPSJub256ZXJvIiBmaWxsPSIjMDRkNjU5IiBkPSJNMjQzLjM4IDQ0Ny44MTljLTI3Ljg1OC0yNy4xNzgtNDAuNzY3LTgwLjkzOSAxMi41NjktMTkxLjc5OC04Ni43MTMgMzguNzg4LTExNy4xMTggODkuNzcxLTEwMi4xNyAxMDQuMzdsODkuNiA4Ny40Mjh6Ii8+PHBhdGggZmlsbC1ydWxlPSJub256ZXJvIiBmaWxsPSIjMDBjN2Q0IiBkPSJNNDk3LjkxNSA4LjAyNkwyNTguNTgyIDI1My40MTRjLTEuNTI5IDEuNTAzLTEuNzg0IDMuODk4LS41OTUgNS42NTYgMTQuNjA4IDIwLjMyNCA0MS40NDYgMjMuODQ5IDUxLjM4MyAzNy41MDUgMjkuNDcgNDAuNDUyIDM3LjAzIDYzLjM1IDQ5LjY4NCA2MS45MzEuODUtLjEyNyAxLjY5OS0uNTUyIDIuMjkzLTEuMjE0bDg2LjQ1OS04OC42NWM0OS43NjktNTAuOTU4IDU2LjkwMy0xNjMuMjc4IDU4LjE3Ny0yNTcuMzM4di0uMDA5YzAtMi41NzMtMi4xMjMtNC42OTYtNC42NzEtNC42OTYtMS4yNzQgMC0yLjQ2My41MTgtMy4zOTcgMS40Mjd6Ii8+PHBhdGggZmlsbC1ydWxlPSJub256ZXJvIiBmaWxsPSIjMTFlMWVlIiBkPSJNNDQ3LjgwNiAyNjguNjQyYy0yNy4xNzggMjcuODU3LTgwLjkzOCA0MC43NjYtMTkxLjc3Mi0xMi42MiAzOC43MjggODYuNzkgODkuNzcxIDExNy4yMDMgMTA0LjM3OSAxMDIuMjQ2bDg3LjM5My04OS42MjZ6Ii8+PHBhdGggZmlsbC1ydWxlPSJub256ZXJvIiBmaWxsPSIjZTQzOTIxIiBkPSJNNy45NTMgMTQuMDgxbDI0NS4zNjMgMjM5LjM4NGE0LjQ4IDQuNDggMCAwMDUuNjkuNTM1YzIwLjI5OS0xNC41NjYgMjMuODY2LTQxLjQyIDM3LjU0LTUxLjM3NCA0MC40MjYtMjkuNDg4IDYzLjI3Mi0zNi45NyA2MS45MTQtNDkuNjQyLS4xNy0uODgzLS41OTUtMS42OTgtMS4yNzQtMi4zMDFsLTg4LjU4Mi04Ni40NzZDMjE3LjY0NiAxNC40NTUgMTA1LjI4NCA3LjMwNCAxMS4yNjYgNi4wMTNoLS4wODVjLTIuNTQ4IDAtNC42NzEgMi4xMTUtNC42NzEgNC42ODggMCAxLjI3NC41MSAyLjQ5NyAxLjQ0MyAzLjM4eiIvPjxwYXRoIGZpbGw9IiNmZjc1NTciIGQ9Ik0yNjguNjA0IDY0LjIxNWMyNy44NTcgMjcuMTc4IDQwLjc2NiA4MC45MzktMTIuNjU1IDE5MS44MDYgODYuNzk4LTM4Ljc4NyAxMTcuMjAzLTg5Ljc4IDEwMi4yNTYtMTA0LjM3bC04OS42MDEtODcuNDM2eiIvPjxwYXRoIGZpbGwtcnVsZT0ibm9uemVybyIgZmlsbD0iIzBjYjZmZiIgZD0iTTY0LjI2MiAyNDMuNGMyNy4xNzgtMjcuODU2IDgwLjg1My00MC43NjYgMTkxLjc3MiAxMi42MjEtMzguODEzLTg2Ljc5LTg5Ljc3MS0xMTcuMjAzLTEwNC4zNzktMTAyLjI0N2wtODcuMzkzIDg5LjYyN3oiLz48Y2lyY2xlIHRyYW5zZm9ybT0idHJhbnNsYXRlKDI0NS4zMzMgMjQ1LjI3OCkgc2NhbGUoOC40OTMpIiBmaWxsPSIjNGE0ODQ4IiByPSIxLjI2IiBjeT0iMS4yNiIgY3g9IjEuMjYiLz48L3N2Zz4=;" vertex="1" parent="WQfHvuFEGdMXnjnuVvza-36">
          <mxGeometry x="35.67209638019099" y="44.75" width="57.5" height="57.5" as="geometry" />
        </mxCell>
        <mxCell id="WQfHvuFEGdMXnjnuVvza-39" value="&lt;font style=&quot;font-size: 20px;&quot;&gt;Airflow&lt;/font&gt;" style="text;html=1;whiteSpace=wrap;strokeColor=none;fillColor=none;align=center;verticalAlign=middle;rounded=0;" vertex="1" parent="WQfHvuFEGdMXnjnuVvza-36">
          <mxGeometry x="20.004345991561184" y="11.5" width="88.82700421940928" height="34.5" as="geometry" />
        </mxCell>
        <mxCell id="DQLFJEPSvfaTY-vOjtD--15" value="" style="group" parent="1" vertex="1" connectable="0">
          <mxGeometry x="39.99999999999999" y="560" width="269.86000000000007" height="170" as="geometry" />
        </mxCell>
        <mxCell id="DQLFJEPSvfaTY-vOjtD--16" value="" style="image;aspect=fixed;perimeter=ellipsePerimeter;html=1;align=center;shadow=0;dashed=0;spacingTop=3;image=img/lib/active_directory/internet_cloud.svg;" parent="DQLFJEPSvfaTY-vOjtD--15" vertex="1">
          <mxGeometry width="269.86" height="170" as="geometry" />
        </mxCell>
        <mxCell id="DQLFJEPSvfaTY-vOjtD--17" value="" style="image;aspect=fixed;html=1;points=[];align=center;fontSize=12;image=img/lib/azure2/databases/Oracle_Database.svg;" parent="DQLFJEPSvfaTY-vOjtD--15" vertex="1">
          <mxGeometry x="100.93" y="70" width="68" height="68" as="geometry" />
        </mxCell>
        <mxCell id="DQLFJEPSvfaTY-vOjtD--18" value="" style="shape=image;verticalLabelPosition=bottom;verticalAlign=top;imageAspect=0;aspect=fixed;image=data:image/svg+xml,PHN2ZyB4bWxucz0iaHR0cDovL3d3dy53My5vcmcvMjAwMC9zdmciIHZpZXdCb3g9IjAgMCA2MzguMDM0NjY3OTY4NzUgNzkuOTc2NTAxNDY0ODQzNzUiIHZlcnNpb249IjEuMCIgd2lkdGg9IjkyMy4wNzY4NzY3MzU3MDEiIGhlaWdodD0iNTMzLjMzNDAwOTk2NTIzMTQiPjxwYXRoIGZpbGw9IiNmODAwMDAiIGQ9Ik0yNjUuNTkxMyA1Mi4wMzJoNDAuNjUyTDI4NC43NDggMTcuNDQ5NWwtMzkuNDUxMyA2Mi41MjdoLTE3Ljk1NWw0Ny45ODYtNzUuMTA4M0MyNzcuNDE0IDEuODMzNCAyODAuODkxMSAwIDI4NC43NDggMGMzLjcyOTggMCA3LjIwNyAxLjc3MDIgOS4yMzAyIDQuNzQxN2w0OC4xNzU1IDc1LjIzNDdoLTE3Ljk1NWwtOC40NzE5LTEzLjk3MjJoLTQxLjE1OHptMTg2LjUwNjMgMTMuOTcyMlYuNzU4N0g0MzYuODYxdjcxLjYzMWMwIDEuOTYuNzU4OCAzLjg1NjYgMi4yMTI4IDUuMzEwNyAxLjQ1NCAxLjQ1NDEgMy40MTQgMi4yNzYgNS41NjM1IDIuMjc2aDY5LjQ4MTZsOC45Nzc1LTEzLjk3MjJ6bS0yNTIuMDY4LTExLjY5NjFjMTQuNzk0MyAwIDI2LjgwNjYtMTEuOTQ5IDI2LjgwNjYtMjYuNzQzMSAwLTE0Ljc5NC0xMi4wMTIzLTI2LjgwNjMtMjYuODA2NS0yNi44MDYzSDEzMy4zNzR2NzkuMjE3N2gxNS4yMzA2VjE0LjczMDhoNTAuNDEzNWM3LjA4MTEgMCAxMi43NzEgNS43NTMyIDEyLjc3MSAxMi44MzQyIDAgNy4wODA5LTUuNjg5OSAxMi44MzQyLTEyLjc3MSAxMi44MzQybC00Mi45NTMyLS4wNjMzIDQ1LjQ4MiAzOS42NDA0aDIyLjEyODFMMTkzLjA3NTQgNTQuMzA4ek0zOS42MTU3IDc5Ljk3NjRDMTcuNzQ2NSA3OS45NzY0IDAgNjIuMjc0IDAgNDAuMzk5MiAwIDE4LjUyNDIgMTcuNzQ2Ny43NTg3IDM5LjYxNTUuNzU4N2g0Ni4wNDQ2YzIxLjg3NSAwIDM5LjYwOSAxNy43NjU1IDM5LjYwOSAzOS42NDA1IDAgMjEuODc0OS0xNy43MzQgMzkuNTc3Mi0zOS42MDkgMzkuNTc3MnpNODQuNjM2IDY2LjAwNDJjMTQuMTY4NCAwIDI1LjY0MzMtMTEuNDQzMyAyNS42NDMzLTI1LjYwNSAwLTE0LjE2MTktMTEuNDc0OS0yNS42Njg0LTI1LjY0MzMtMjUuNjY4NEg0MC42MzMyYy0xNC4xNjE4IDAtMjUuNjQzMyAxMS41MDY1LTI1LjY0MzMgMjUuNjY4NCAwIDE0LjE2MTcgMTEuNDgxNSAyNS42MDUgMjUuNjQzMyAyNS42MDV6bTI4OS4zMTg2IDEzLjk3MjJjLTIxLjg3NSAwLTM5LjY0MDMtMTcuNzAyMy0zOS42NDAzLTM5LjU3NzIgMC0yMS44NzUgMTcuNzY1My0zOS42NDA1IDM5LjY0MDMtMzkuNjQwNWg1NC42ODc0bC04LjkxNDMgMTMuOTcyMWgtNDQuNzYxNWMtMTQuMTYxOSAwLTI1LjY2OCAxMS41MDY1LTI1LjY2OCAyNS42Njg0IDAgMTQuMTYxNyAxMS41MDYxIDI1LjYwNSAyNS42NjggMjUuNjA1aDU0Ljk0MDFsLTguOTc3NCAxMy45NzIyem0xODYuMzE2Ny0xMy45NzIyYy0xMS42OTYzIDAtMjEuNjIyMi03LjgzOTYtMjQuNjU3LTE4LjY1MDZoNjUuMTE5M2w4Ljk3NzUtMTMuOTcyMmgtNzQuMDk2OGMzLjAzNDgtMTAuNzQ3OCAxMi45NjA3LTE4LjY1MDYgMjQuNjU3LTE4LjY1MDZoNDQuNjk4M0w2MTQuMDEwMi43NTg3aC01NC43NTA2Yy0yMS44NzUgMC0zOS42NDAzIDE3Ljc2NTUtMzkuNjQwMyAzOS42NDA1IDAgMjEuODc0OSAxNy43NjUzIDM5LjU3NzIgMzkuNjQwMyAzOS41NzcyaDQ2Ljk3NDNsOC45Nzc0LTEzLjk3MjJoLTU0Ljk0bTYxLjg5NDgtNTYuODM2OWE2LjkzNDEgNi45MzQxIDAgMDE2Ljk1NDMtNi45NTQ1YzMuOTIgMCA3LjAxNzUgMy4wOTc5IDcuMDE3NSA2Ljk1NDUgMCAzLjkxOTctMy4wOTc1IDcuMDE3Ni03LjAxNzUgNy4wMTc2LTMuODU2OCAwLTYuOTU0My0zLjA5NzktNi45NTQzLTcuMDE3NnptNi45NTQzIDguOTc3NWM0LjkzMTEgMCA4LjkxNDMtMy45ODMgOC45MTQzLTguOTE0MyAwLTQuOTMxNC0zLjk4MzItOC45MTQ0LTguOTE0My04LjkxNDQtNC44Njg0IDAtOC44NTEgMy45ODMtOC44NTEgOC45MTQ0IDAgNC45MzEzIDMuOTgyNiA4LjkxNDMgOC44NTEgOC45MTQzem0tLjgyMi0xNC4yMjVjMS4zOTA4IDAgMS45Ni4wNjMyIDIuNTkyNC4zMTYgMS43Ny41NjkxIDEuOTU5NSAyLjE0OTYgMS45NTk1IDIuNzgxOSAwIC4xMjY0IDAgLjQ0MjUtLjEyNjQuODIxOC0uMDYzLjM3OTQtLjMxNTkgMS4xMzgtMS4yMDEgMS43MDctLjEyNjUuMDYzMy0uMTg5Ny4xMjY1LS40NDI1LjI1M2wyLjI3NiA0LjEwOTRoLTIuMjEyOGwtMi4wMjMyLTMuNzkzM2gtMS4zOTA3djMuNzkzM2gtMS45NlYzLjkxOTh6bS42OTU2IDQuNTUyYy42MzItLjA2MzIgMS4yNjQ0LS4wNjMyIDEuNjQzNi0uNjMyMy4xODk1LS4yNTI4LjI1MzItLjUwNTcuMjUzMi0uODg1IDAtLjUwNTgtLjMxNjQtLjk0ODQtLjc1ODgtMS4yMDEzLS40NDI4LS4xODk2LS44ODUyLS4xODk2LTEuODMzNi0uMTg5NmgtLjU2ODd2Mi45MDgyaDEuMjY0MyIvPjwvc3ZnPg==;" parent="DQLFJEPSvfaTY-vOjtD--15" vertex="1">
          <mxGeometry x="82.98000000000002" y="20" width="103.9" height="60" as="geometry" />
        </mxCell>
        <mxCell id="WQfHvuFEGdMXnjnuVvza-4" value="&lt;font style=&quot;font-size: 45px;&quot;&gt;Data Analysis &amp;amp; Predictive models&lt;/font&gt;" style="text;strokeColor=none;fillColor=none;html=1;fontSize=50;fontStyle=1;verticalAlign=middle;align=center;" vertex="1" parent="1">
          <mxGeometry x="40" y="40" width="739.55" height="40" as="geometry" />
        </mxCell>
        <mxCell id="WQfHvuFEGdMXnjnuVvza-22" value="Data to be analysed" style="text;html=1;whiteSpace=wrap;strokeColor=none;fillColor=none;align=center;verticalAlign=middle;rounded=0;" vertex="1" parent="1">
          <mxGeometry x="113.93" y="510" width="60" height="30" as="geometry" />
        </mxCell>
        <mxCell id="WQfHvuFEGdMXnjnuVvza-30" value="" style="group" vertex="1" connectable="0" parent="1">
          <mxGeometry x="710" y="185" width="101.60000000000002" height="260" as="geometry" />
        </mxCell>
        <mxCell id="WQfHvuFEGdMXnjnuVvza-11" value="" style="image;html=1;image=img/lib/clip_art/finance/Graph_128x128.png" vertex="1" parent="WQfHvuFEGdMXnjnuVvza-30">
          <mxGeometry x="11.6" y="150" width="68.4" height="70" as="geometry" />
        </mxCell>
        <mxCell id="WQfHvuFEGdMXnjnuVvza-28" value="Graphs and plots for analysis" style="text;html=1;whiteSpace=wrap;strokeColor=none;fillColor=none;align=center;verticalAlign=middle;rounded=0;" vertex="1" parent="WQfHvuFEGdMXnjnuVvza-30">
          <mxGeometry y="230" width="101.6" height="30" as="geometry" />
        </mxCell>
        <mxCell id="WQfHvuFEGdMXnjnuVvza-29" value="" style="group" vertex="1" connectable="0" parent="WQfHvuFEGdMXnjnuVvza-30">
          <mxGeometry width="101.60000000000002" height="130" as="geometry" />
        </mxCell>
        <mxCell id="DQLFJEPSvfaTY-vOjtD--13" value="" style="sketch=0;pointerEvents=1;shadow=0;dashed=0;html=1;strokeColor=none;fillColor=#434445;aspect=fixed;labelPosition=center;verticalLabelPosition=bottom;verticalAlign=top;align=center;outlineConnect=0;shape=mxgraph.vvd.log_files;" parent="WQfHvuFEGdMXnjnuVvza-29" vertex="1">
          <mxGeometry x="3.6" width="64" height="80" as="geometry" />
        </mxCell>
        <mxCell id="WQfHvuFEGdMXnjnuVvza-27" value="Statistical model&amp;nbsp; prediction" style="text;html=1;whiteSpace=wrap;strokeColor=none;fillColor=none;align=center;verticalAlign=middle;rounded=0;" vertex="1" parent="WQfHvuFEGdMXnjnuVvza-29">
          <mxGeometry x="-13.6" y="80" width="101.6" height="30" as="geometry" />
        </mxCell>
        <mxCell id="WQfHvuFEGdMXnjnuVvza-32" value="" style="group" vertex="1" connectable="0" parent="1">
          <mxGeometry x="510" y="592" width="101.60000000000002" height="302" as="geometry" />
        </mxCell>
        <mxCell id="WQfHvuFEGdMXnjnuVvza-31" value="" style="group" vertex="1" connectable="0" parent="WQfHvuFEGdMXnjnuVvza-32">
          <mxGeometry width="101.60000000000002" height="130" as="geometry" />
        </mxCell>
        <mxCell id="WQfHvuFEGdMXnjnuVvza-57" value="" style="group" vertex="1" connectable="0" parent="WQfHvuFEGdMXnjnuVvza-31">
          <mxGeometry x="-10.8" width="101.6" height="110" as="geometry" />
        </mxCell>
        <mxCell id="WQfHvuFEGdMXnjnuVvza-9" value="" style="sketch=0;pointerEvents=1;shadow=0;dashed=0;html=1;strokeColor=none;fillColor=#434445;aspect=fixed;labelPosition=center;verticalLabelPosition=bottom;verticalAlign=top;align=center;outlineConnect=0;shape=mxgraph.vvd.log_files;" vertex="1" parent="WQfHvuFEGdMXnjnuVvza-57">
          <mxGeometry x="18.8" width="64" height="80" as="geometry" />
        </mxCell>
        <mxCell id="WQfHvuFEGdMXnjnuVvza-25" value="Machine learning&amp;nbsp; prediction" style="text;html=1;whiteSpace=wrap;strokeColor=none;fillColor=none;align=center;verticalAlign=middle;rounded=0;" vertex="1" parent="WQfHvuFEGdMXnjnuVvza-57">
          <mxGeometry y="80" width="101.6" height="30" as="geometry" />
        </mxCell>
        <mxCell id="WQfHvuFEGdMXnjnuVvza-56" value="" style="group" vertex="1" connectable="0" parent="1">
          <mxGeometry x="360.00000000000006" y="592" width="60.8" height="106" as="geometry" />
        </mxCell>
        <mxCell id="WQfHvuFEGdMXnjnuVvza-10" value="" style="sketch=0;pointerEvents=1;shadow=0;dashed=0;html=1;strokeColor=none;fillColor=#434445;aspect=fixed;labelPosition=center;verticalLabelPosition=bottom;verticalAlign=top;align=center;outlineConnect=0;shape=mxgraph.vvd.log_files;" vertex="1" parent="WQfHvuFEGdMXnjnuVvza-56">
          <mxGeometry width="60.8" height="76" as="geometry" />
        </mxCell>
        <mxCell id="WQfHvuFEGdMXnjnuVvza-23" value="Neural net prediction" style="text;html=1;whiteSpace=wrap;strokeColor=none;fillColor=none;align=center;verticalAlign=middle;rounded=0;" vertex="1" parent="WQfHvuFEGdMXnjnuVvza-56">
          <mxGeometry x="0.7999999999999758" y="76" width="60" height="30" as="geometry" />
        </mxCell>
        <mxCell id="WQfHvuFEGdMXnjnuVvza-59" style="edgeStyle=orthogonalEdgeStyle;rounded=0;orthogonalLoop=1;jettySize=auto;html=1;exitX=0.5;exitY=0;exitDx=0;exitDy=0;entryX=0.173;entryY=1.004;entryDx=0;entryDy=0;entryPerimeter=0;" edge="1" parent="1" source="DQLFJEPSvfaTY-vOjtD--16" target="WQfHvuFEGdMXnjnuVvza-37">
          <mxGeometry relative="1" as="geometry" />
        </mxCell>
        <mxCell id="WQfHvuFEGdMXnjnuVvza-60" style="edgeStyle=orthogonalEdgeStyle;rounded=0;orthogonalLoop=1;jettySize=auto;html=1;exitX=0.5;exitY=1;exitDx=0;exitDy=0;" edge="1" parent="1" source="WQfHvuFEGdMXnjnuVvza-35" target="WQfHvuFEGdMXnjnuVvza-10">
          <mxGeometry relative="1" as="geometry" />
        </mxCell>
        <mxCell id="WQfHvuFEGdMXnjnuVvza-61" style="edgeStyle=orthogonalEdgeStyle;rounded=0;orthogonalLoop=1;jettySize=auto;html=1;exitX=0.5;exitY=1;exitDx=0;exitDy=0;" edge="1" parent="1" source="WQfHvuFEGdMXnjnuVvza-34" target="WQfHvuFEGdMXnjnuVvza-9">
          <mxGeometry relative="1" as="geometry" />
        </mxCell>
        <mxCell id="WQfHvuFEGdMXnjnuVvza-66" style="edgeStyle=orthogonalEdgeStyle;rounded=0;orthogonalLoop=1;jettySize=auto;html=1;exitX=1;exitY=0.5;exitDx=0;exitDy=0;" edge="1" parent="1" source="WQfHvuFEGdMXnjnuVvza-5" target="DQLFJEPSvfaTY-vOjtD--13">
          <mxGeometry relative="1" as="geometry">
            <Array as="points">
              <mxPoint x="680" y="292" />
              <mxPoint x="680" y="225" />
            </Array>
          </mxGeometry>
        </mxCell>
        <mxCell id="WQfHvuFEGdMXnjnuVvza-67" style="edgeStyle=orthogonalEdgeStyle;rounded=0;orthogonalLoop=1;jettySize=auto;html=1;exitX=1;exitY=0;exitDx=0;exitDy=0;entryX=0;entryY=0.5;entryDx=0;entryDy=0;" edge="1" parent="1" source="WQfHvuFEGdMXnjnuVvza-33" target="WQfHvuFEGdMXnjnuVvza-11">
          <mxGeometry relative="1" as="geometry">
            <Array as="points">
              <mxPoint x="680" y="327" />
              <mxPoint x="680" y="370" />
            </Array>
          </mxGeometry>
        </mxCell>
      </root>
    </mxGraphModel>
  </diagram>
</mxfile>
